<?xml version="1.0" encoding="UTF-8" standalone="no"?>
<!DOCTYPE svg PUBLIC "-//W3C//DTD SVG 1.1//EN" "http://www.w3.org/Graphics/SVG/1.1/DTD/svg11.dtd">
<svg width="100%" height="100%" viewBox="0 0 1226 1426" version="1.1" xmlns="http://www.w3.org/2000/svg" xmlns:xlink="http://www.w3.org/1999/xlink" xml:space="preserve" xmlns:serif="http://www.serif.com/" style="fill-rule:evenodd;clip-rule:evenodd;stroke-linejoin:round;stroke-miterlimit:2;">
    <g transform="matrix(1,0,0,1,-870.428,-1402.32)">
        <g>
            <path d="M1843.72,1498.25L1867.59,1491.54C2008.72,1438.11 2093.35,1495.24 2093.35,1495.24C2089.11,1677.38 1961.67,1716 1961.67,1716C1991.74,1980.34 1819.05,2058 1819.05,2058C1919.08,2150.62 1889.28,2272.39 1889.28,2272.39C1897.33,2399.23 2095.72,2290.18 2095.72,2290.18C2100.17,2320.1 2071.42,2376.06 2071.42,2376.06C1991.39,2559.21 1758.47,2426.39 1758.47,2426.39C1885.12,2619.54 1744.85,2658.98 1744.85,2658.98C1496.03,2729.68 1450.04,2827.89 1450.04,2827.89C1416.13,2735.62 1562.72,2617.03 1562.72,2617.03C1672.97,2515.5 1518.67,2404.36 1518.67,2404.36C1560.44,2469.5 1393.31,2579.18 1393.31,2579.18C1305.53,2685.32 1389.06,2809.16 1389.06,2809.16C1342.25,2791.63 1318.44,2772.31 1318.44,2772.31C1144.71,2672.49 1269.06,2496 1269.06,2496C1345.97,2404.24 1326.93,2352.93 1326.93,2352.93C1314.26,2387.06 1252.42,2415.31 1252.42,2415.31C979.04,2561.89 889.402,2309.21 889.402,2309.21C925.987,2330.94 926.252,2327.82 926.252,2327.82C1048.81,2367.77 1091.69,2253.47 1091.69,2253.47C1128.57,2105.76 1220.04,2067.97 1220.04,2067.97C953.388,2013.45 979.875,1711.93 979.875,1711.93C966.132,1714.83 939.46,1701.84 939.46,1701.84C868.534,1647.88 870.433,1567.09 870.433,1567.09C984.937,1430.84 1144.67,1521.78 1144.67,1521.78C1518.54,1267.49 1843.72,1498.25 1843.72,1498.25ZM1291.11,1659.67L1263.65,1655.69C1222.66,1645.86 1195.53,1665.94 1195.53,1665.94C1018.94,1802.16 1195.41,1966.88 1195.41,1966.88C1368.73,2046.78 1599.28,2003.59 1599.28,2003.59C1845.92,2007.97 1822.66,1732.96 1822.66,1732.96C1849.86,1594.37 1643.34,1655.84 1643.34,1655.84C1474.43,1690.3 1291.11,1659.67 1291.11,1659.67Z"/>
            <path d="M1338.14,1733.39L1335.11,1742.71C1398.42,1775.16 1389.33,1834.21 1389.33,1834.21C1382.27,1866.87 1304,1885.53 1304,1885.53C1185.19,1901.8 1196.24,1814.49 1196.24,1814.49C1189.85,1717.1 1319.55,1714.03 1319.55,1714.03L1338.14,1733.39ZM1269.66,1762.19L1259.2,1761.92C1231.86,1781.5 1227.86,1808 1227.86,1808C1205.86,1861.16 1283.9,1859.54 1283.9,1859.54C1363.8,1856.12 1348.47,1804.95 1348.47,1804.95C1323.05,1835.78 1296.07,1813.32 1296.07,1813.32C1256.34,1791.73 1269.66,1762.19 1269.66,1762.19Z"/>
            <path d="M1450.25,1919.49L1459.22,1928.01C1472.76,1942.43 1493.63,1935.55 1493.63,1935.55C1530.78,1935.54 1528.78,1882.29 1528.78,1882.29C1532.77,1850.7 1553.5,1877.06 1553.5,1877.06C1565.5,1882.07 1546.17,1935 1546.17,1935C1538.48,1983.06 1489.45,1968 1489.45,1968C1432.08,1960.61 1388.47,1904.37 1388.47,1904.37C1375.15,1878.28 1406.97,1886.78 1406.97,1886.78C1430.43,1877 1450.25,1919.49 1450.25,1919.49Z"/>
            <path d="M1675.88,1710.54L1691.13,1715.42C1715.63,1721.08 1745.68,1766.18 1745.68,1766.18C1779.69,1870.88 1695.59,1886.97 1695.59,1886.97C1582.68,1907.67 1566.94,1791.16 1566.94,1791.16C1557.87,1711.28 1675.88,1710.54 1675.88,1710.54ZM1695.24,1760.24L1695.34,1773.54C1701.56,1790.14 1679.73,1815.05 1679.73,1815.05C1664.27,1842.57 1615.87,1834.11 1615.87,1834.11C1638.54,1879.41 1698.7,1862.13 1698.7,1862.13C1767.48,1812.53 1695.24,1760.24 1695.24,1760.24Z"/>
        </g>
    </g>
</svg>
