<?xml version="1.0" encoding="UTF-8" standalone="no"?>
<!DOCTYPE svg PUBLIC "-//W3C//DTD SVG 1.1//EN" "http://www.w3.org/Graphics/SVG/1.1/DTD/svg11.dtd">
<svg width="100%" height="100%" viewBox="0 0 821 740" version="1.1" xmlns="http://www.w3.org/2000/svg" xmlns:xlink="http://www.w3.org/1999/xlink" xml:space="preserve" xmlns:serif="http://www.serif.com/" style="fill-rule:evenodd;clip-rule:evenodd;stroke-linejoin:round;stroke-miterlimit:2;">
    <g transform="matrix(1,0,0,1,-1585.02,-254.871)">
        <g transform="matrix(6.12323e-17,-1,1,6.12323e-17,425.719,1746.1)">
            <path d="M1082.03,1658.93L1109.58,1656.11C1115.19,1651.26 1124.35,1654.84 1124.35,1654.84C1134.36,1650.39 1143.05,1656.84 1143.05,1656.84C1174.12,1659.28 1176.35,1667.39 1176.35,1667.39C1177.31,1669.66 1169.37,1677.56 1169.37,1677.56C1168.15,1678.42 1138.47,1678.79 1138.47,1678.79C1131.76,1678.69 1135.15,1696.64 1135.15,1696.64C1132.01,1706.39 1139.42,1704.01 1139.42,1704.01C1172.74,1703.04 1179.68,1707.24 1179.68,1707.24C1181.85,1708.55 1189.71,1703.27 1189.71,1703.27C1187.41,1697.76 1190.04,1685.46 1190.04,1685.46C1191.67,1675.41 1186.46,1680.54 1186.46,1680.54C1184.34,1683.06 1172.61,1687.43 1172.61,1687.43C1168.59,1686.54 1174.12,1680.84 1174.12,1680.84C1188.32,1670.78 1177.19,1652.12 1177.19,1652.12C1169.99,1636.82 1177.34,1636.73 1177.34,1636.73C1189.55,1630.79 1193.52,1655.23 1193.52,1655.23C1202.23,1660.59 1203.94,1710.41 1203.94,1710.41C1207.44,1715.25 1205.68,1723.92 1205.68,1723.92C1200.69,1730.72 1203.11,1746.49 1204.32,1755.37C1205.53,1764.25 1201.32,1763.89 1201.32,1763.89C1157.59,1769.1 1085.24,1762.84 1085.24,1762.84C1082.25,1772.91 1073.14,1770.94 1073.14,1770.94C1066.07,1765.52 1070.42,1755.05 1070.42,1755.05C1066.43,1755.78 1064.84,1752.02 1064.84,1752.02C1062.94,1747.8 1070.7,1742.07 1070.7,1742.07C1057.32,1727.66 1068.25,1674.68 1068.25,1674.68C1061.34,1674.17 1059.99,1669.58 1059.99,1669.58C1058.61,1661.02 1082.03,1658.93 1082.03,1658.93ZM1110.24,1719.29L1106.79,1718.73C1106.68,1716.83 1079.71,1719.77 1079.71,1719.77C1080.32,1720.64 1080.97,1737.08 1080.97,1737.08C1080.63,1745.81 1089.08,1745.48 1089.08,1745.48C1098.75,1742.61 1114.71,1746.49 1114.71,1746.49C1124.36,1739.45 1110.24,1719.29 1110.24,1719.29ZM1182.14,1720.58C1182.14,1720.58 1138.12,1718.35 1137.2,1721.13C1136.28,1723.92 1135,1743.8 1135.66,1747.18C1136.31,1750.57 1182.93,1747.41 1185.2,1749.44C1187.47,1751.47 1192.31,1749.43 1192.48,1750.55C1192.65,1751.66 1197.1,1728.38 1184.99,1721.58L1182.14,1720.58ZM1082.16,1679.11C1082.16,1679.11 1081.9,1701.05 1080.71,1705.63C1080.71,1705.63 1107.38,1703.27 1109.16,1704.93C1109.16,1704.93 1118.92,1696.33 1111.02,1680.72C1111.02,1680.72 1105.88,1675.73 1087.63,1678.96L1082.16,1679.11Z"/>
        </g>
        <g transform="matrix(6.12323e-17,-1,1,6.12323e-17,425.719,1746.1)">
            <path d="M1009,1427.97C1009,1427.97 1012.24,1426.26 1015.03,1426.22C1017.81,1426.18 1022.5,1440.12 1022.5,1440.12C1023.45,1437.94 1064.85,1443.6 1064.85,1443.6L1063.31,1434.58C1063.37,1434.94 1074.93,1437.56 1074.93,1437.56C1077.75,1438.22 1083.96,1443.92 1083.96,1443.92C1092.04,1446.44 1120.17,1444.5 1120.17,1444.5C1130.64,1442.15 1127.95,1423.59 1127.95,1423.59C1127.9,1412.33 1135.04,1415.16 1135.04,1415.16C1138.32,1415.28 1144.39,1436.93 1144.39,1436.93C1142.96,1451.77 1150.86,1454.01 1150.86,1454.01C1161.59,1455.2 1161.67,1459.54 1161.67,1459.54C1163.37,1464.59 1152.14,1468.07 1152.14,1468.07C1151.11,1482.02 1168.02,1539.31 1168.02,1539.31C1171.34,1556.98 1163.84,1554.68 1163.84,1554.68C1149.31,1551.57 1142.11,1562.27 1142.11,1562.27C1141.28,1563.31 1102.55,1560.13 1102.55,1560.13C1080.2,1549.48 1051.68,1554.64 1051.68,1554.64L1055.34,1570C1056.37,1576.48 1046.73,1572.23 1046.73,1572.23C1038.97,1545.26 1033.3,1547.99 1033.3,1547.99C1020.52,1538.44 1036.34,1535.33 1036.34,1535.33C1037.95,1530.22 1000.89,1452.41 1000.89,1452.41L984.683,1450.36C973.411,1443.22 991.781,1439.99 991.781,1439.99C1010.58,1442.25 1009,1427.97 1009,1427.97ZM1103.43,1508.14L1102.89,1512.22C1104.85,1512.68 1105.3,1524.75 1105.3,1524.75C1110.24,1523.84 1117.4,1521.6 1117.4,1521.6C1126.84,1523.58 1135.27,1517.83 1135.27,1517.83L1135.12,1503.22C1135.44,1499.93 1125.48,1502.61 1125.48,1502.61C1117.33,1510.64 1103.43,1508.14 1103.43,1508.14ZM1046.91,1508.56L1048.07,1511.63C1049,1512.85 1054.19,1529.27 1054.19,1529.27C1054.68,1530.21 1067.89,1528.37 1067.89,1528.37C1068.37,1526.39 1087.59,1523.18 1087.59,1523.18C1091.38,1514.75 1081.15,1506.82 1081.15,1506.82L1046.91,1508.56ZM1106.08,1538.69L1108.88,1541.26C1110.59,1543.06 1133.16,1542.83 1133.16,1542.83C1135.76,1540.3 1140.41,1538.25 1140.41,1538.25C1144.51,1536.26 1138.93,1531.27 1138.93,1531.27C1137.33,1529.65 1106.08,1538.69 1106.08,1538.69ZM1086.65,1463.04L1087.57,1467.57C1085.3,1471.89 1096.01,1487.02 1096.01,1487.02C1112.86,1490.28 1128.71,1484.34 1128.71,1484.34C1131.53,1481.89 1129.7,1470.96 1125.52,1466.1C1121.34,1461.23 1086.65,1463.04 1086.65,1463.04ZM1033.95,1461.85L1040.18,1485.65C1040.18,1485.65 1070.18,1482.28 1074.36,1483.61C1074.36,1483.61 1081.94,1478.12 1069.28,1462.1C1069.28,1462.1 1044.88,1459.82 1038.4,1461.38L1033.95,1461.85Z"/>
        </g>
        <g transform="matrix(6.12323e-17,-1,1,6.12323e-17,425.719,1746.1)">
            <path d="M1160.59,1366.78L1160.15,1358.46C1163.09,1340.99 1116.27,1251.91 1116.27,1251.91C1112.72,1248.74 1108.19,1262.2 1108.19,1262.2C1103.9,1215.02 1122.98,1224.34 1122.98,1224.34C1131.11,1225.82 1141.64,1243.95 1141.64,1243.95C1140.97,1265.44 1167.51,1324.8 1167.51,1324.8C1145.58,1221.78 1155.22,1217.93 1155.22,1217.93C1155.83,1205.56 1169.06,1221.11 1169.06,1221.11C1170.12,1219.45 1146.59,1171.71 1146.59,1171.71C1137.95,1149.56 1154.21,1163.81 1154.21,1163.81C1160.03,1163.62 1443.2,1502.69 1451,1508.92C1458.81,1515.16 1455.35,1522.72 1455.35,1522.72C1463.72,1534.4 1457.54,1539.94 1457.54,1539.94C1455.78,1548.19 1431.67,1546.21 1431.67,1546.21C1428.11,1548.75 1429.28,1565.16 1429.28,1565.16C1448.36,1541.94 1446.87,1552.67 1446.87,1552.67C1459.25,1548.63 1429.57,1583.91 1429.57,1583.91C1419.5,1602.36 1428.88,1596.29 1428.88,1596.29C1449.47,1586.66 1485.97,1529.06 1485.97,1529.06C1494.79,1528.35 1489.84,1546.58 1489.84,1546.58C1478.35,1551.52 1421.24,1686.65 1421.24,1686.65C1437.36,1687.21 1429.42,1699.67 1443.87,1690.89C1458.32,1682.12 1457.08,1671.26 1457.08,1671.26C1460.34,1653.29 1468.94,1664.49 1468.94,1664.49C1466.13,1665.08 1477.6,1692.71 1477.6,1692.71C1470.58,1699.63 1477.3,1797.38 1477.3,1797.38C1487.48,1795.12 1488.23,1802.93 1488.23,1802.93C1487.82,1806.9 1478.14,1814.53 1478.14,1814.53C1476,1813.92 1473.95,1851.01 1473.95,1851.01C1474.66,1862.72 1464.89,1858.5 1464.89,1858.5C1458.58,1857.59 1455.14,1821.89 1455.14,1821.89C1450.56,1814.91 1370.65,1824.53 1370.65,1824.53C1366.49,1840.25 1338.05,1888.44 1338.05,1888.44C1305.84,1920.77 1291.94,1962.08 1291.94,1962.08C1277.58,1985.52 1267.53,1979.62 1267.53,1979.62C1259.8,1975.82 1267.71,1962.03 1267.71,1962.03C1269.92,1954.57 1259.93,1928.76 1259.93,1928.76C1259.52,1922.8 1251.32,1937.29 1251.32,1937.29C1251.17,1931.86 1240.89,1892.91 1240.89,1892.91C1235.85,1898.11 1230.92,1893.23 1230.92,1893.23C1228.15,1888.22 1237.67,1879.62 1237.67,1879.62C1235.66,1872 1223.84,1823.55 1223.84,1823.55C1111.57,1810.85 849.59,1836.74 849.59,1836.74C841.283,1835.23 821.761,1858.66 821.761,1858.66C816.193,1862.71 812.711,1851.73 812.711,1851.73C812.92,1837.6 810.871,1823.51 810.871,1823.51C798.015,1824.96 792.065,1819.58 792.065,1819.58C784.38,1814.46 802.513,1808.5 802.513,1808.5C803.26,1795.41 788.148,1530.22 788.148,1530.22C783.229,1533.25 756.34,1527.55 756.34,1527.55C744.462,1521.94 759.519,1517.83 759.519,1517.83C765.377,1518.68 785.565,1512.74 785.565,1512.74C788.09,1497.07 769.198,1356.61 769.198,1356.61C762.486,1341.41 773.362,1340.93 773.362,1340.93C784.224,1354.64 1160.59,1366.78 1160.59,1366.78ZM1390.01,1661C1390.01,1661 1334.54,1764.15 1336.62,1787.14L1388.87,1672.34L1390.01,1661ZM1372.02,1735.99C1372.02,1735.99 1341.5,1794.15 1343.23,1798.21C1344.97,1802.27 1348.41,1799.12 1348.41,1799.12L1372.02,1735.99ZM1199.69,1424.24C1199.69,1424.24 1214.08,1542.83 1223.9,1580.91C1223.9,1580.91 1208.18,1445.02 1205.21,1445.05L1199.69,1424.24ZM819.049,1547.89C819.049,1547.89 828.988,1639.73 828.143,1645.22C828.143,1645.22 967.503,1637.67 984.145,1640.45C984.145,1640.45 1003.61,1632.35 1004.18,1633.29C1004.18,1633.29 1006.64,1614.31 999.518,1603.16C999.518,1603.16 988.174,1574.89 989.13,1561.87C989.13,1561.87 993.279,1544.75 974.945,1547.07C974.945,1547.07 894.453,1544.42 888.68,1543.21C888.68,1543.21 828.961,1542.95 827.475,1546.14L819.049,1547.89ZM1269.19,1897.68C1269.19,1897.68 1264.95,1896.27 1264.4,1899.78C1263.86,1903.3 1267.38,1914.3 1269.99,1915.91C1272.61,1917.53 1323.76,1803.47 1322.3,1800.58C1320.83,1797.69 1352.46,1685.28 1388.19,1648.84C1388.19,1648.84 1420.65,1568.05 1419.66,1551.62L1425.28,1537.7L1373.08,1484.84C1373.08,1484.84 1361.57,1488.26 1359.22,1481.48C1359.22,1481.48 1193.32,1280.06 1184.93,1278.32C1184.93,1278.32 1191.03,1308.93 1189.61,1310.4L1202.18,1310.32C1202.18,1310.32 1277.34,1874.41 1271.2,1884.89L1269.19,1897.68ZM1087.01,1813.95C1092.84,1814.32 1096.73,1814.57 1096.73,1814.57C1095.92,1814.14 1092.36,1813.96 1087.01,1813.95ZM1087.01,1813.95C1069.71,1812.85 1035.33,1810.62 1035.03,1810.35C1035.03,1810.35 1167.4,1807.2 1170.72,1811.39C1170.72,1811.39 1175.74,1803.91 1079.22,1804.2C982.692,1804.48 1004.99,1812.17 943.62,1813.79C882.253,1815.42 864.828,1823.24 862.569,1821.55C860.311,1819.87 851.071,1823.77 851.071,1823.77C851.071,1823.77 841.329,1827.46 844.08,1828.51C846.831,1829.57 854.403,1828.95 858.086,1828.15C861.77,1827.35 990.026,1812.68 995.374,1817.92C995.374,1817.92 1061.48,1813.93 1087.01,1813.95ZM1164.53,1382.18C1164.53,1382.18 1156.87,1374.36 1150.27,1380.95L1164.53,1382.18ZM1408.39,1714.4C1407.2,1714.95 1388.94,1750.7 1380.79,1799.88C1380.79,1799.88 1436.21,1803.43 1445.6,1801.47C1445.6,1801.47 1451.1,1772.64 1447.23,1731.84C1447.23,1731.84 1438,1733.37 1439.51,1719.21C1439.51,1719.21 1409.58,1713.86 1408.39,1714.4ZM973.763,1524.85C973.763,1524.85 972.373,1522.52 973.077,1521.04C973.78,1519.55 970.146,1517.56 970.146,1517.56C884.539,1510.74 821.274,1524.27 821.274,1524.27C811.548,1526.57 820.196,1531.7 820.196,1531.7C894.174,1520.29 906.32,1532.96 934.454,1527.83C962.589,1522.69 973.763,1524.85 973.763,1524.85ZM831.867,1661.64C831.867,1661.64 835.549,1800.82 834.649,1804.67C834.649,1804.67 914.311,1808.49 998.466,1792.3C998.466,1792.3 1101.89,1781.77 1227.32,1798.56C1227.32,1798.56 1201.67,1577.86 1198.67,1569.3C1198.67,1569.3 1173.65,1405.94 1170.6,1401.84C1170.6,1401.84 856.914,1382.67 802.373,1358.24C802.373,1358.24 814.887,1499.18 814.627,1509.29C814.627,1509.29 892.758,1501.83 966.933,1503.41C966.933,1503.41 984.16,1493.23 982.496,1512.18C982.496,1512.18 985.47,1532.67 1002.97,1540.55C1002.97,1540.55 1005.18,1547.74 1003.07,1551.79C1000.97,1555.85 1036.17,1635.72 1021.52,1646.97C1021.52,1646.97 1014.99,1661.71 945.774,1658.81L831.867,1661.64ZM1356.71,1821.8C1356.71,1821.8 1327.59,1869.53 1324.78,1876.86C1324.78,1876.86 1324.72,1882.52 1328.98,1880.74C1328.98,1880.74 1356.83,1835.29 1356.27,1830.03C1355.7,1824.77 1356.71,1821.8 1356.71,1821.8Z"/>
        </g>
    </g>
</svg>
