<?xml version="1.0" encoding="UTF-8" standalone="no"?>
<!DOCTYPE svg PUBLIC "-//W3C//DTD SVG 1.1//EN" "http://www.w3.org/Graphics/SVG/1.1/DTD/svg11.dtd">
<svg width="100%" height="100%" viewBox="0 0 963 731" version="1.1" xmlns="http://www.w3.org/2000/svg" xmlns:xlink="http://www.w3.org/1999/xlink" xml:space="preserve" xmlns:serif="http://www.serif.com/" style="fill-rule:evenodd;clip-rule:evenodd;stroke-linejoin:round;stroke-miterlimit:2;">
    <g transform="matrix(1,0,0,1,-28.2719,-159.872)">
        <g transform="matrix(-0.225542,-1.36989,1.36989,-0.225542,-2319.07,3371.56)">
            <path d="M1490.36,1976.21C1490.36,1976.21 1682.56,1978.18 1841.17,2041.4C1841.17,2041.4 1876.59,2024.82 1890.32,2024.84C1890.32,2024.84 1903.7,2024.25 1886.48,2047.23C1886.48,2047.23 1879.32,2055.6 1895.54,2052.41C1895.54,2052.41 1904.98,2056.51 1899.97,2064.75L1909.43,2068.62L1906.62,2048.68L1915.88,2033.46L1924.45,2037.48C1924.45,2037.48 1993.26,2132.67 1911.01,2632.86C1911.01,2632.86 1883.51,2670.97 1883.34,2711.29C1883.34,2711.29 1876.14,2741.24 1868.01,2713.28C1868.01,2713.28 1870.42,2704.35 1869.08,2696.72L1852.94,2686.76C1852.94,2686.76 1860.99,2700.82 1862.15,2706.53C1863.31,2712.23 1860.75,2720.93 1849.31,2707.67C1837.87,2694.42 1846.08,2684.32 1767.44,2668.55C1688.8,2652.78 1599.78,2623.45 1555.76,2596.42C1555.76,2596.42 1550.4,2597.29 1552.14,2605.57C1553.88,2613.85 1537.93,2604.69 1538.59,2591.4C1538.59,2591.4 1493.37,2562.02 1490.84,2552.5C1490.84,2552.5 1483.18,2535.91 1500.24,2544.48C1500.24,2544.48 1409.06,2202.9 1503.11,2014.96C1503.11,2014.96 1509.55,2011.52 1502.64,2004.58C1502.64,2004.58 1486.8,1995.73 1505.82,1992.86C1505.82,1992.86 1512.65,1983.67 1497.85,1987.25C1497.85,1987.25 1490.67,1994.28 1486.59,1985.05C1482.51,1975.82 1490.36,1976.21 1490.36,1976.21ZM1825.23,2670.37L1825.38,2673.66C1827.82,2674.64 1848.3,2685.24 1848.13,2681.59C1847.97,2677.94 1840.6,2671.55 1840.6,2671.55L1825.23,2670.37ZM1765.5,2646.48C1765.5,2646.48 1769.01,2652.9 1773.76,2653.18C1778.52,2653.47 1780.93,2648.64 1780.93,2648.64L1765.5,2646.48ZM1711.28,2640.21L1703.53,2640.11C1703.49,2642.76 1738.53,2647.32 1738.53,2647.32L1711.28,2640.21ZM1577.98,2585.89L1579.34,2590.47C1581.07,2596.99 1673.51,2626.55 1669.05,2622.06C1664.58,2617.58 1664.84,2614.72 1664.84,2614.72L1577.98,2585.89ZM1846.6,2078.87C1846.6,2078.87 1763.16,2112.24 1715.09,2228.53C1715.09,2228.53 1769.97,2220.44 1773.57,2221.29C1773.57,2221.29 1762.41,2224.09 1758.69,2231.51C1758.69,2231.51 1809.45,2233.54 1798.77,2298.82C1798.77,2298.82 1792.96,2316.7 1759.75,2331.27C1759.75,2331.27 1787.23,2364.63 1772.42,2407.66C1772.42,2407.66 1757.56,2443.64 1734.44,2437.63L1714.9,2432.07C1714.9,2432.07 1762.02,2588.01 1784.45,2604.05C1784.45,2604.05 1794.06,2609.6 1800.05,2628.27C1800.05,2628.27 1844.18,2640.18 1854.26,2649.87C1854.26,2649.87 1859.9,2650.56 1863.89,2638.47C1867.89,2626.38 1902.41,2529.55 1910.43,2281.05C1910.43,2281.05 1905.6,2204.34 1874.47,2098.19L1846.6,2078.87ZM1663.33,2252.54C1663.33,2252.54 1641.9,2257.59 1637.17,2271.03C1637.17,2271.03 1649.62,2256.59 1661.23,2259.28L1663.33,2252.54ZM1922.72,2476.62C1922.72,2476.62 1899.01,2558.34 1899.88,2604.18C1899.88,2604.18 1921.18,2487.98 1922.37,2487.49L1922.72,2476.62ZM1890.67,2099.24L1889.58,2108.29C1888.14,2107.42 1906.66,2177.32 1906.66,2177.32C1906.16,2167.03 1890.67,2099.24 1890.67,2099.24ZM1923.09,2270.93L1920.05,2311.79C1923.04,2310.12 1914.63,2429.68 1914.63,2429.68C1935.81,2344.28 1923.09,2270.93 1923.09,2270.93ZM1549.41,2015.51C1549.48,2015.62 1553.99,2022.75 1549.56,2024.16C1545.09,2025.58 1542.36,2022.53 1542.36,2022.53C1542.36,2022.53 1480.58,2292.27 1539.34,2540.22C1539.34,2540.22 1563.27,2543.71 1583.64,2562.31C1583.64,2562.31 1751.48,2605.97 1758.69,2614.13C1758.69,2614.13 1677.83,2438.29 1681.42,2406.66C1681.42,2406.66 1598.91,2305.98 1600.5,2295.93C1600.5,2295.93 1591.79,2270.2 1622.95,2283.54C1622.95,2283.54 1628.97,2261.22 1668.25,2244.12C1668.25,2244.12 1784.8,2082.71 1807.95,2067.14C1807.95,2067.14 1550.02,2015.87 1549.41,2015.51ZM1502.29,2092.29C1502.29,2092.29 1458.18,2356.6 1516.86,2546.1L1528.31,2548.05C1528.31,2548.05 1498.11,2465.49 1507.59,2395.64C1507.59,2395.64 1486.52,2382.52 1495.66,2315.4C1504.8,2248.29 1501.71,2123.15 1505.57,2103.67L1502.29,2092.29ZM1520.7,2023.89C1520.7,2023.89 1505.5,2041.12 1513.56,2085.43C1513.56,2085.43 1526.59,2046.25 1523.12,2031.34L1520.7,2023.89ZM1919.93,2056.83C1919.93,2056.83 1917.38,2088.75 1934.4,2233.32C1934.4,2233.32 1939.01,2135.4 1924.93,2075.02L1919.93,2056.83ZM1779.42,2273.67L1778.67,2262.58C1778.67,2262.58 1757.79,2247.76 1741.71,2251.11C1741.71,2251.11 1741.94,2251.3 1742.37,2251.62L1741.43,2251.38C1741.43,2251.38 1737.65,2249.88 1713.24,2253.89C1713.07,2253.81 1712.98,2253.77 1712.98,2253.77C1667,2262.77 1642.7,2292.97 1642.7,2292.97L1643.61,2298.11C1647,2308.79 1638.97,2303.58 1638.97,2303.58C1621.13,2286.54 1633.35,2308.69 1633.35,2308.69C1653.29,2352.75 1686.73,2382.23 1686.73,2382.23C1728,2434.97 1745.82,2418.44 1745.82,2418.44C1766.73,2388.12 1761.81,2375.62 1761.81,2375.62C1752.78,2332.47 1722.22,2335.56 1722.22,2335.56C1706.5,2337.07 1719.79,2322.61 1719.79,2322.61C1720.81,2320.5 1718.81,2314.65 1718.81,2314.65C1708.94,2297.95 1728.65,2307.07 1728.65,2307.07C1753.49,2331.39 1778.68,2288.43 1778.68,2288.43C1778.68,2288.43 1780.71,2276.13 1779.42,2273.67ZM1901.27,2081.22L1910.1,2106.26L1908.22,2088.52L1901.27,2081.22ZM1568.39,2008.54L1587.63,2013.89C1587.28,2015.27 1810.62,2058.38 1810.62,2058.38L1807.69,2054.52C1802.2,2047.25 1587.03,2004.58 1587.03,2004.58C1583.82,2005.16 1568.39,2008.54 1568.39,2008.54ZM1860.8,2675.33C1860.8,2675.33 1865.88,2684.82 1868.79,2684C1871.7,2683.18 1870.12,2675.24 1870.12,2675.24L1860.8,2675.33Z"/>
        </g>
    </g>
</svg>
