<?xml version="1.0" encoding="UTF-8" standalone="no"?>
<!DOCTYPE svg PUBLIC "-//W3C//DTD SVG 1.1//EN" "http://www.w3.org/Graphics/SVG/1.1/DTD/svg11.dtd">
<svg width="100%" height="100%" viewBox="0 0 894 976" version="1.1" xmlns="http://www.w3.org/2000/svg" xmlns:xlink="http://www.w3.org/1999/xlink" xml:space="preserve" xmlns:serif="http://www.serif.com/" style="fill-rule:evenodd;clip-rule:evenodd;stroke-linejoin:round;stroke-miterlimit:2;">
    <g transform="matrix(1,0,0,1,-53.2929,-14.6732)">
        <g transform="matrix(1.31025e-16,-2.1398,2.1398,1.31025e-16,-2499.51,5569.49)">
            <path d="M2595.95,1326.68L2595.39,1330.76C2594.91,1334.62 2589.59,1336.23 2589.59,1336.23C2583.33,1337.09 2578.24,1329.32 2578.24,1329.32C2577.93,1332.69 2582.95,1342.05 2582.95,1342.05C2536.51,1401.79 2529.57,1400.36 2529.57,1400.36C2446.41,1439.52 2444.97,1427.17 2444.97,1427.17C2423.18,1418.37 2398.89,1369.8 2398.89,1369.8C2386.63,1350.26 2394.88,1328.02 2394.88,1328.02C2393.99,1325.21 2386.37,1323.71 2386.37,1323.71C2373.52,1327.82 2365.24,1321.41 2365.24,1321.41C2333.42,1333.39 2322.04,1347.17 2322.04,1347.17C2323.33,1351.69 2322.1,1355.04 2322.1,1355.04C2320.52,1359.71 2316.78,1357.08 2313.46,1358.15C2310.14,1359.22 2309.71,1360.9 2309.71,1360.9C2301.42,1366.97 2290.86,1383.75 2290.86,1383.75C2293.29,1390.2 2290.66,1390.25 2290.66,1390.25C2288.24,1389.19 2283.8,1388.68 2283.8,1388.68C2278.69,1390.1 2281.96,1393.41 2281.96,1393.41C2288.8,1394.91 2287.52,1400.2 2287.52,1400.2C2283.19,1400.06 2272.8,1404.23 2272.8,1404.23C2269.25,1408.68 2273.51,1414.33 2273.51,1414.33C2282.4,1412.13 2289.04,1422.38 2289.04,1422.38C2306.74,1419.65 2315.66,1430.93 2315.66,1430.93C2325.75,1428.29 2364.13,1494.82 2364.13,1494.82C2369.4,1537.29 2347.63,1547.47 2347.63,1547.47L2346.91,1555.64C2354.43,1556.35 2355.28,1563.27 2355.28,1563.27C2352.43,1576.17 2334.45,1583.51 2334.45,1583.51C2321.28,1585.13 2321.17,1593 2321.17,1593C2326.36,1590.68 2327.63,1597.56 2327.63,1597.56C2330.16,1604.35 2320.58,1603.34 2320.58,1603.34C2311.37,1599.3 2282.55,1596.01 2270.18,1605.64C2257.82,1615.26 2255.39,1607.72 2255.39,1607.72C2253.61,1603.27 2258.29,1598.56 2258.29,1598.56C2162.67,1564.6 2156.53,1458.69 2156.53,1458.69C2131.82,1451.04 2142.31,1445.76 2142.31,1445.76C2141.23,1441.17 2153.9,1440.08 2153.9,1440.08C2152.63,1387.72 2183.93,1370.99 2183.93,1370.99C2191.04,1343.58 2230.75,1290.6 2316.72,1224.08C2402.69,1157.57 2496.55,1218.53 2496.55,1218.53C2503.18,1216.2 2512.98,1221.49 2512.98,1221.49C2563.88,1254.86 2595.95,1326.68 2595.95,1326.68ZM2209.28,1489.78L2202.41,1492.58L2209.62,1493.61C2211.21,1495.99 2282.41,1493.94 2282.41,1493.94C2301.67,1495.9 2342.02,1491.74 2342.02,1491.74C2344.81,1487.87 2335.49,1480.04 2335.49,1480.04C2332.32,1477.56 2327.57,1481.31 2327.57,1481.31C2331.91,1486.1 2320.72,1488.51 2320.72,1488.51C2301.41,1495.82 2209.28,1489.78 2209.28,1489.78ZM2190.55,1449.62C2190.55,1449.62 2174.45,1448.54 2172.35,1450.66C2172.35,1450.66 2178.51,1455.29 2186.15,1455.04L2190.55,1449.62ZM2181.86,1418.82L2172.85,1420.23L2172.68,1424.8L2181.04,1424.6L2181.86,1418.82ZM2282.72,1362.85L2278.71,1362.62C2251.44,1363.44 2207.3,1383.33 2207.3,1383.33L2268.04,1378.13L2282.72,1362.85ZM2193.05,1412.51L2194.78,1414.51C2197.89,1411.96 2256.57,1415.58 2256.57,1415.58L2260.79,1409.85L2256.23,1406.1C2230.1,1405.35 2193.05,1412.51 2193.05,1412.51ZM2187.75,1388.16C2187.75,1388.16 2177.58,1397.07 2180.3,1403.4L2186.42,1403.79L2191.17,1390.88L2187.75,1388.16ZM2192.36,1435.83C2192.36,1435.83 2252.28,1445.06 2257.88,1447.74C2257.88,1447.74 2285.46,1442.87 2303.97,1447.51L2285.51,1435.27C2285.51,1435.27 2229.91,1430.22 2195.89,1434.72L2192.36,1435.83ZM2184.66,1465.08L2188.51,1468.82C2188.04,1470.2 2205.26,1470.37 2205.26,1470.37C2219.88,1465.48 2324.91,1467.49 2324.91,1467.49C2325.3,1461.88 2313.28,1457.82 2313.28,1457.82C2289.01,1455.78 2184.66,1465.08 2184.66,1465.08ZM2301.95,1579.72C2299.15,1582.69 2270.55,1581.96 2270.55,1581.96L2271.31,1584.64C2272.24,1589.14 2287.29,1587.22 2287.29,1587.22C2296.37,1585.81 2301.32,1580.44 2301.95,1579.72ZM2285.54,1276.47L2257.32,1305.46L2307.74,1280.88L2285.54,1276.47ZM2192.62,1480.64L2185.85,1475.19L2177.98,1474.97L2176.6,1480.1L2182.4,1487.15L2192.62,1480.64ZM2564.2,1302.38L2563.61,1303.9C2565.78,1309.3 2560.64,1307.75 2562.64,1309.66C2564.64,1311.57 2560.31,1316.39 2560.31,1316.39C2554.73,1320.12 2558.59,1322.78 2558.59,1322.78C2563.55,1329.54 2555.69,1330.2 2555.69,1330.2C2498.05,1320.82 2478.7,1328.64 2478.7,1328.64C2478.09,1331.3 2485.3,1334.71 2485.3,1334.71C2486.94,1337.4 2550.46,1337.8 2550.46,1337.8C2552.08,1342.64 2556.48,1342.49 2556.48,1342.49C2565.53,1340.71 2564.65,1332.79 2564.65,1332.79C2563.02,1321.95 2568.99,1322.23 2568.99,1322.23C2576.54,1324.03 2574.01,1317.1 2574.01,1317.1C2573.6,1315.75 2569.38,1315.99 2569.38,1315.99C2564.72,1314.86 2570.87,1309.12 2570.87,1309.12L2564.2,1302.38ZM2196.74,1504.02L2205.06,1510.72C2209.89,1507.35 2268.47,1514.44 2301.78,1513.43C2335.09,1512.42 2329.2,1519.47 2329.2,1519.47C2329.38,1521.96 2324.16,1526.02 2324.16,1526.02L2326.8,1527.22C2329.03,1524.95 2342.68,1527.82 2342.68,1527.82C2352.82,1520.1 2345.95,1509.86 2345.95,1509.86C2344.36,1510.12 2274,1511.16 2274,1511.16C2267.56,1511.62 2196.74,1504.02 2196.74,1504.02ZM2410.33,1334.24C2410.33,1334.24 2396.46,1338.15 2407.05,1358.84C2407.05,1358.84 2420.43,1383.73 2422.32,1388.23C2422.32,1388.23 2440.39,1408.48 2441.86,1409.05C2441.86,1409.05 2448.4,1416.69 2449.83,1414.57C2449.83,1414.57 2454.67,1414.19 2449.01,1406.68C2449.01,1406.68 2436.31,1399.95 2444.43,1395.93C2444.43,1395.93 2446.99,1392.94 2443.27,1389.25C2443.27,1389.25 2430.52,1369.44 2429.47,1369.54C2428.41,1369.64 2419.86,1366.15 2423.45,1359.24C2423.45,1359.24 2426.74,1355.3 2420.67,1352.4C2414.6,1349.5 2410.48,1351.64 2408.52,1346.27C2406.56,1340.9 2407.17,1341.03 2408.77,1340.33C2410.36,1339.64 2412.3,1339.47 2412.23,1337.42C2412.16,1335.37 2412.17,1334.73 2411.37,1335.09C2410.58,1335.45 2410.33,1334.24 2410.33,1334.24ZM2473.27,1294.55L2476.99,1299.55C2476.99,1299.55 2540.37,1301.39 2555.72,1307.96C2555.72,1307.96 2555.36,1300.94 2553.15,1300.68C2553.15,1300.68 2485.91,1291.67 2479.95,1294.22L2473.27,1294.55ZM2462.7,1279.01L2470.85,1285.41C2470.85,1285.41 2493.65,1282.59 2525.86,1289.87C2525.86,1289.87 2504.3,1275.03 2468.43,1278.83L2462.7,1279.01ZM2468.03,1299.13L2459.02,1292.46C2459.02,1292.46 2423.4,1289.56 2421.29,1292.71C2421.29,1292.71 2428.8,1296.62 2428.8,1299.05L2468.03,1299.13ZM2255.57,1560.9L2266.65,1567.28C2267.18,1566.08 2296.26,1564.87 2296.26,1564.87C2296.18,1562.78 2293.56,1561.33 2293.56,1561.33C2290.53,1560.24 2255.57,1560.9 2255.57,1560.9ZM2317.84,1242.3L2327.88,1238.92C2393.96,1202.73 2463.43,1217.85 2463.43,1217.85C2398.61,1179.13 2317.84,1242.3 2317.84,1242.3ZM2548.81,1348.05L2545.3,1347.4C2538.03,1350.63 2481.12,1344 2481.12,1344C2477.5,1345.57 2475.71,1348.51 2475.71,1348.51L2479.86,1349.57C2516.34,1344.54 2531.57,1359.2 2531.57,1359.2C2537.35,1361.67 2548.81,1348.05 2548.81,1348.05ZM2404.12,1302.91L2390.89,1294.93L2391.35,1300.44L2383.22,1309.09L2376.7,1310.97C2376.7,1310.97 2388.31,1313.04 2391.73,1315.6C2391.73,1315.6 2392.74,1303.32 2400.74,1304.02L2404.12,1302.91ZM2360.81,1262.46L2368.32,1262.94C2429.94,1257.93 2549.23,1279.62 2549.23,1279.62C2543.88,1268.27 2456.48,1261.01 2456.48,1261.01C2369.48,1252.48 2360.81,1262.46 2360.81,1262.46ZM2413.78,1279.62L2420.81,1285.03C2432.51,1283.04 2451.48,1283.66 2451.48,1283.66C2448.48,1274.7 2413.78,1279.62 2413.78,1279.62ZM2295.8,1329.97L2292.99,1328.32C2279.18,1326.63 2272.11,1332.15 2272.11,1332.15C2276.04,1335.27 2295.8,1329.97 2295.8,1329.97ZM2241.05,1545.09L2248.69,1551.84C2248.69,1551.84 2314.4,1545.65 2323.09,1554.48C2323.09,1554.48 2330.1,1548.31 2327.93,1547.91C2327.93,1547.91 2248.74,1542.75 2246.47,1544.78L2241.05,1545.09ZM2216.38,1520C2216.38,1520 2218.69,1523.26 2220.16,1522.71C2221.63,1522.16 2285.16,1525.13 2285.16,1525.13L2283.03,1522.5C2281.85,1524.55 2216.38,1520 2216.38,1520ZM2221.08,1533.16L2225.43,1539.68C2225.43,1539.68 2236.9,1535.91 2242.97,1538.3C2249.04,1540.69 2244.2,1536.45 2244.2,1536.45C2244.2,1536.45 2227.78,1531.02 2225.25,1532.87C2222.72,1534.71 2221.08,1533.16 2221.08,1533.16ZM2306.33,1338.29C2306.33,1338.29 2251.06,1343.86 2214.61,1357.73C2214.61,1357.73 2220.65,1364.01 2255.41,1355.88C2255.41,1355.88 2260.27,1352.26 2263.56,1352.49C2263.56,1352.49 2289.96,1353.37 2304.13,1344.12L2306.33,1338.29ZM2257.77,1315.16L2260.33,1317.41C2277.15,1319.57 2316.62,1305.3 2316.62,1305.3C2291.63,1301.83 2257.77,1315.16 2257.77,1315.16ZM2262.85,1391.61L2260.15,1390.57C2256.25,1387.78 2212.94,1397.8 2212.94,1397.8C2242.07,1393.62 2258.11,1397.04 2258.11,1397.04L2262.85,1391.61ZM2435.73,1310.91C2438.49,1311.78 2442.09,1315.38 2442.09,1315.38L2468.56,1315.13L2466.57,1310.96L2435.73,1310.91ZM2435.73,1310.91C2435.01,1310.69 2434.34,1310.65 2433.81,1310.91L2435.73,1310.91ZM2490.45,1311.87L2491.52,1315.42C2491.52,1315.42 2550.03,1315.66 2552.81,1319.85C2555.59,1324.04 2553.7,1316.14 2553.7,1316.14L2490.45,1311.87ZM2471.66,1380.52C2471.66,1380.52 2464.87,1385.56 2466.63,1387.99C2466.63,1387.99 2474.01,1388.21 2473.97,1390.16C2473.97,1390.16 2477.02,1384.36 2479.45,1385.37C2479.45,1385.37 2476.33,1379.97 2474.51,1381.65L2471.66,1380.52ZM2471.02,1361.34C2471.02,1361.34 2468.15,1372.46 2473.99,1373.16C2473.99,1373.16 2483.72,1370.97 2493.88,1377.45C2493.88,1377.45 2497.53,1380.15 2499.56,1373.24C2499.56,1373.24 2505.5,1368.62 2516.57,1365.36C2516.57,1365.36 2521.43,1362.77 2517,1360.98C2517,1360.98 2500.84,1357.67 2485.47,1361.1C2485.47,1361.1 2473.49,1362.44 2473.36,1361.25L2471.02,1361.34ZM2448.26,1360.25C2448.26,1360.25 2439.78,1360.45 2440.64,1363.78C2440.64,1363.78 2440.97,1366.71 2449.53,1366.5L2451.28,1368.37C2451.28,1368.37 2453.35,1362.17 2455.03,1363.44C2455.03,1363.44 2452.63,1361.53 2453.43,1360.8C2454.24,1360.06 2448.26,1360.25 2448.26,1360.25Z"/>
        </g>
    </g>
</svg>
