<?xml version="1.0" encoding="UTF-8" standalone="no"?>
<!DOCTYPE svg PUBLIC "-//W3C//DTD SVG 1.1//EN" "http://www.w3.org/Graphics/SVG/1.1/DTD/svg11.dtd">
<svg width="100%" height="100%" viewBox="0 0 2434 1153" version="1.1" xmlns="http://www.w3.org/2000/svg" xmlns:xlink="http://www.w3.org/1999/xlink" xml:space="preserve" xmlns:serif="http://www.serif.com/" style="fill-rule:evenodd;clip-rule:evenodd;stroke-linejoin:round;stroke-miterlimit:2;">
    <g transform="matrix(1,0,0,1,-27.8125,-22.1843)">
        <g transform="matrix(2.31139,0,0,2.31139,-358.679,-1501.38)">
            <path d="M347.576,722.645L350.278,721.504L350.764,727.037L354.723,725.49L356.265,720.578L358.711,720.768L360.581,724.001L361.486,731.597L365.417,722.97L366.629,726.368L373.662,727.102L373.98,731.222L378.956,731.602L379.047,737.6L381.877,738.537C382.788,739.918 380.396,761.528 380.396,761.528C312.61,913.003 300.239,1006.65 300.239,1006.65C301.315,1007.98 301.894,1023.68 301.894,1023.68C300.371,1034.2 298.851,1032.08 298.851,1032.08L297.698,1041.17L295.882,1036.4L292.377,1040.03L290.798,1043.77L289.105,1041.08C289.105,1041.08 287.683,1038.35 285.556,1039.4C283.43,1040.46 284.553,1043.11 285.568,1046.74C286.583,1050.36 286.29,1055.4 292.387,1066.13C298.485,1076.86 304.227,1122.67 304.227,1122.67L300.676,1126.14L299.579,1134.19L298.778,1129.91L295.003,1127.28L294.22,1133.37L292.822,1127.65L292.413,1136.31L291.178,1131.38L289.534,1126.58L288.774,1129.53L287.999,1137.12L286.533,1132.31L284.74,1126.1L285.476,1137.74L283.151,1132.91L280.919,1125.81L278.506,1126.6L278.014,1138.62L275.451,1129.18L274.076,1130.03C273.146,1134.67 277.553,1140.23 277.553,1140.23L272.551,1135.52C271.979,1131.25 267.499,1128.8 267.499,1128.8C266.804,1131.32 271.831,1142.19 271.831,1142.19C271.831,1142.19 270.235,1141.12 268.831,1138.24C267.427,1135.35 264.844,1133.47 264.844,1133.47L267.355,1138.68L267.326,1144.92L261.614,1135.69L260.131,1137.23L261.992,1143.49L257.553,1138.12L254.53,1138.4L249.664,1132.85C247.595,1133.51 246.331,1129.57 246.331,1129.57L244.932,1122.53L243.061,1118.56C246.015,1109.21 221.84,1035.83 214.935,1022.97C208.031,1010.12 194.288,960.472 185.202,928.104C176.116,895.735 170.743,821.922 170.743,821.922L170.98,819.803L170.063,818.748C169.62,814.195 171.525,804.973 171.525,804.973L169.406,803.208L168.95,795.84L167.212,793.183L170.329,792.734L171.432,788.213L172.03,793.559L173.917,793.473L174.112,788.622L176.045,788.159L176.901,785.099L180.2,784.077L182.509,781.227L185.957,783.659L185.778,780.165L188.17,777.707L190.652,784.228L194.009,782.247L194.306,778.043L196.047,787.146L198.702,785.118L200.228,777.929L203.785,788.619L204.918,786.206L204.361,778.683L207.69,788.043L209.656,788.337L209.104,774.067L213.76,780.539L213.757,777.012L216.203,780.964L218.851,780.604L223.167,786.074L229.708,784.75L347.576,722.645ZM297.299,806.753L233.11,841.258C233.11,841.258 234.498,892.792 252.171,948.095C252.171,948.095 290.133,814.604 296.751,811.347L297.299,806.753Z"/>
        </g>
        <g transform="matrix(2.31139,0,0,2.31139,-371.469,-1546.49)">
            <path d="M405.515,780.861L404.188,786.175L407.965,784.86L411.626,780.528L410.975,783.787L416.11,781.246L410.498,788.516L412.212,789.987C412.372,787.563 417.935,783.041 417.935,783.041L415.417,788.451L416.678,788.76C417.642,785.886 422.008,781.565 422.008,781.565L421.628,785.496C421.628,785.496 423.796,788.928 423.656,786.346C423.515,783.765 427.21,780.232 427.21,780.232L426.314,784.66L427.472,784.606L428.176,789.131C428.176,789.131 429.482,790.714 429.324,789.021C429.166,787.328 432.532,784.94 432.532,784.94L431.417,787.316L433.369,787.424L439.022,780.772L438.581,785.154L440.788,785.37L444.451,781.825L441.154,788.711L442.28,789.105L446.121,782.905L444.447,789.31C446.623,786.998 448.683,787.259 448.683,787.259L447.126,790.86L447.782,792.777L450.631,791.253L450.593,803.563C472.766,838.846 479.599,886.848 480.14,888.045C480.681,889.242 482.79,907.731 482.79,907.731C482.509,911.785 483.876,912.216 483.876,912.216L489.069,913.204C490.686,908.158 575.482,857.774 575.482,857.774L578.308,858.039C579.792,856.407 585.667,853.788 585.667,853.788L589.289,854.576L590.615,857.184L599.158,852.296L607.358,852.583L604.319,855.759L604.563,857.476L608.777,860.743L605.773,863.305L613.308,863.081L613.43,860.616L612.282,857.118L617.248,861.242L616.545,864.144L620.271,868.092L615.389,866.955L609.308,868.905L603.002,871.89L609.101,871.754L616.804,869.728L619.015,870.816L622.689,870.604L623.887,873.604L617.541,877.043L618.85,877.884L623.94,876.217L620.64,881.106L621.042,883.584L623.123,885.217L623.14,887.144L620.814,887.875L621.331,888.912C621.331,890.342 621.001,893.167 621.001,893.167L618.972,893.739C618.55,896.39 609.731,907.026 609.731,907.026C599.967,907.922 507.745,970.251 497.243,977.367L496.915,977.59C496.842,977.639 496.562,977.73 496.502,977.771C496.209,977.97 496.271,978.027 496.271,978.027C495.095,981.273 504.327,1030.93 504.327,1030.93C503.497,1053.77 523.708,1103.35 523.708,1103.35L523.937,1109.07L525.144,1110.31L525.176,1115.9L524.48,1120.21L524.869,1125.75L523.378,1123.49L522.137,1126.91L523.798,1128.78L522.762,1133.92L518.461,1129.84L520.323,1135.13L512.031,1131.71L513.913,1137.58L509.301,1135.55L502.352,1129.08L504.831,1139.41L497.624,1130.98L500.188,1138.02L490.781,1130.38L488.44,1130.4L486.05,1135.33L485.29,1131.88L481.541,1130.07L483.654,1138.38L478.523,1125.43C478.523,1125.43 478.971,1133.04 479.042,1133.97C479.112,1134.91 476.578,1128.04 476.578,1128.04L477.379,1136.03L472.707,1132.97C452.965,1102.84 439.305,1017.02 439.305,1017.02C435.074,1017.6 392.675,1052.93 392.675,1052.93C391.577,1056.87 389.49,1079.94 389.49,1079.94C384.688,1091.73 386.675,1129.41 386.675,1129.41L384.467,1131.06L381.922,1140.4L378.727,1142.18L377.137,1131.86L375.998,1141.15L372.738,1140.81L371.771,1135.3L368.975,1141.15L369.067,1135.61L366.005,1132.33L362.832,1150.72L360.866,1135.87L359.624,1146.51L355.337,1140.15L353.96,1146.84L353.29,1140.72L352.085,1146.38L348.799,1125.82L348.877,1148.08L346.313,1143.94L343.537,1140.59C343.537,1140.59 341.094,1136.32 340.656,1134.79C340.219,1133.26 338.277,1133.5 338.277,1133.5L338.671,1142.77L334.935,1139.14L332.966,1128.73L330.903,1136.12L329.188,1121.89L327.058,1130.16C326.101,1120.1 330.512,1077.47 330.512,1077.47L328.945,1076.13L329.152,1074.26L326.488,1074.17L328.243,1071.65L324.211,1072.71L326.677,1068.66L320.539,1070.57L325.604,1065.99L318.892,1067.81L324.718,1061.19L316.821,1064.97L309.009,1064.76L319.34,1061.58L325.149,1057.22L315.56,1059.82L307.053,1061.32L327.39,1050.18L328.429,1046.83L310.35,1054.13L306.263,1055.61L305.313,1054L323.206,1044.52L318.326,1044.78L325.952,1039.24L331.893,1033.97L323.399,1038.16L318.89,1042.93L316.104,1044.16L302.146,1052.17L310.689,1044.76L302.822,1045.04L311.722,1040.62L307.498,1040.25L311.689,1037.37L306.677,1037.1L328.759,1027.17L316.459,1029.88L343.832,1010.59C362.24,888.21 405.515,780.861 405.515,780.861ZM420.217,920.067L419.382,921.227C411.466,940.365 409.912,965.483 409.912,965.483L427.773,951.104C424.981,923.565 420.217,920.067 420.217,920.067Z"/>
        </g>
        <g transform="matrix(2.31139,0,0,2.31139,-608.12,-1502.59)">
            <path d="M654.322,736.095L652.277,733.886L654.397,734.044L659.797,737.8L662.563,738.956L662.021,733.028L664.64,733.536L666.377,747.012L665.787,738.515L669.532,738.979L673.162,743.512L672.054,734.339L671.849,730.797L674.486,730.817L675.521,736.286L676.638,731.819L677.741,736.823C677.741,736.823 679.959,742.945 680.053,741.722C680.146,740.499 681.585,728.089 681.585,728.089L684.931,736.093L683.742,727.759L688.317,735.148L686.1,728.289L691.485,734.091L690.885,728.304C690.885,728.304 694.839,735.724 695.273,736.602C695.708,737.479 696.006,733.671 696.006,733.671L698.961,736.442L699.147,733.851L702.803,739.932L703.93,738.466L708.051,748.474C712.296,782.263 698.398,890.382 698.572,879.145C698.747,867.908 696.566,960.901 696.566,960.901C710.912,930.609 731.989,902.595 731.989,902.595L737.105,903.893L737.739,899.891L741.505,897.41L743.658,895.836L746.537,892.527L747.163,900.745L749.58,893.407L751.086,888.143L752.939,892.36L756.771,889.73L762.752,889.738L767.266,895.624L769.045,886.227C768.866,888.493 775.012,891.897 775.012,891.897L776.08,896.063L777.952,890.645C777.814,893.241 786.133,901.362 786.133,901.362C786.122,908.817 789.146,911.651 789.146,911.651C786.915,931.037 787.157,948.076 787.157,948.076C870.493,775.944 963.17,682.785 963.17,682.785L961.718,679.813L963.557,676.488L962.798,671.17L965.183,671.109L965.876,668.328L965.435,665.778L970.285,669.477L970.43,673.514L968.79,678.955L972.967,676.284L974.094,672.253L977.588,678.359L977.451,673.475L980.657,670.429L992.062,659.679L982.25,672.115L984.376,675.522L986.211,669.875L988.76,675.486L990.204,670.359L990.364,679.431L997.103,669.085L995.065,677.47L999.43,670.634L1002.24,679.248L1006.01,680.169L1005.7,672.332L1007.46,673.766L1008.26,682.562L1009.96,676.676L1011.07,683.587L1013.79,680.57L1015.94,683.693L1006.45,701.962C811.334,953.318 807.866,1105.21 807.866,1105.21L804.102,1119.69L803.483,1118.14L800.74,1124.27L800.659,1115.71L798.726,1123.52L799.614,1117.19L797.344,1123.71L796.903,1120.01L797.219,1115L794.527,1117.76L792.786,1123.23L792.814,1120.87L791.53,1118.03L789.396,1117.59C789.396,1117.59 789.362,1122.03 789.362,1123.63C789.362,1125.23 788.08,1119.61 788.08,1119.61L786.59,1123.7L785.188,1119.51L784.891,1122.59L782.174,1120.36L781.042,1127.54L780.987,1116.92L778.2,1127.74L777.756,1122.28L775.944,1129.35L775.835,1125.13L774.325,1131.91L774.085,1130.69L774.863,1123.22L774.286,1113.95L771.217,1118.09L770.332,1128.95L769.353,1122.72L768.412,1129.68L766.324,1127.78L766.084,1123.19L764.146,1125.06L765.633,1116.29L762.489,1123.48L760.705,1121.73L760.321,1118.15L758.609,1119.78L758.88,1127.08L753.016,1122.61L748.794,1123.74C744.68,1118.54 727.408,1059.16 727.408,1059.16C716.248,1088.68 711.209,1132.99 711.209,1132.99L709.801,1143.12L709.012,1140.96L707.351,1149.01L707.25,1146.5L705.12,1149.26L702.997,1145.39L702.86,1148.98L701.905,1146.38L700.833,1147.76L700.276,1144.51L699.009,1146.35L700.118,1126.63L696.908,1146.54L698.119,1133.37L695.967,1145.65L694.347,1149.34L692.999,1153.31L692.246,1152.13L690.613,1158.28L689.431,1154.69L688.289,1149.9L686.598,1153.88L685.882,1151.57L684.349,1152.69L684.003,1150.31L682.803,1146.84L680.05,1154.4L679.662,1145.52L678.722,1155.13L677.951,1147.12L676.965,1157.69L676.023,1153.11L674.408,1151.74L674.586,1146.16L672.609,1146.83L672.713,1151.31L667.119,1145.95L665.597,1137.29L664.861,1146.06C664.861,1146.06 661.454,1151.52 661.247,1150.82C661.041,1150.13 659.308,1144.63 659.308,1144.63L658.322,1150.41L653.87,1138.24L652.585,1141.59C638.829,1040.2 632.844,896.68 644.917,823.123C656.99,749.567 654.322,736.095 654.322,736.095Z"/>
        </g>
        <g transform="matrix(2.10213,0.961024,-0.961024,2.10213,528.987,-2335.27)">
            <path d="M930.393,1178C929.23,1179.03 923.454,1184.59 919.322,1197.41L916.126,1198.15L914.247,1200.49L914.284,1192.2L910.534,1194.05L909.145,1189.08L904.339,1187.18L905.487,1180C905.487,1180 882.565,1088.65 887.3,984.792L885.135,980.272L882.971,979.88L885.137,974.432L881.901,975.63L884.767,968.909L879.469,973.157L880.433,965.891L877.583,966.228L880.395,962.711L877.967,960.376L881.293,955.768C881.293,955.768 883.267,946.5 888.656,940.777C888.656,940.777 888.609,872.461 892.62,870.164L895.616,864.459L897.692,869.383L905.905,869.938L907.035,861.405L910.952,876.504L913.377,857.772L914.949,876.417L916.734,858.769L918.343,875.821L915.812,902.628L917.647,900.79L920.241,857.989C920.241,857.989 920.185,893.333 920.181,894.667C920.187,893.783 921.428,883.338 922.313,876.008C922.313,876.008 924.194,873.647 924.482,874.762C924.77,875.877 925.861,883.807 925.759,878.377C925.656,872.947 926.995,862.163 926.995,862.163L928.518,859.691C928.518,859.691 933.174,863.569 933.074,865.063C932.974,866.557 932.887,881.428 932.887,881.428L934.202,867.354L937.326,867.585L940.171,867.595L940.838,877.993C940.838,877.993 1017.89,805.446 1048.45,794.547L1041.48,803.406L1059.4,793.912L1053.15,803.551L1067.2,794.639L1058.66,803.143C1058.66,803.143 1067.8,798.482 1069.19,798.189C1070.58,797.896 1063.28,804.357 1063.28,804.357L1070.96,800.951L1066.42,807.828L1078.61,803.319L1074.44,809.715L1080.78,807.977C1080.78,807.977 1077.53,811.717 1078.65,811.826C1079.77,811.934 1082.77,815.722 1082.77,815.722C1082.77,815.722 1078.6,817.493 1079.83,817.612C1081.07,817.731 1083.38,819.048 1083.38,819.048L1080.6,824.616L1083.39,825.383L1079.85,828.795C1079.85,828.795 1080.39,831.574 1076.46,837.398L1074.07,842.498L1076.49,841.675C1076.49,841.675 1001.91,886.621 942.071,964.81L939.823,999.019C939.823,999.019 1004.5,950.942 1010.64,948.685L1021.65,935.942L1022.56,937.529L1030.19,932.584L1028.45,936.417L1042.47,932.585L1037.06,935.857L1049.12,934.396L1045.56,937.067L1052.5,937.427L1048.44,940.189L1056.03,940.1L1054.16,942.226L1057.86,943.342L1056.94,945.746L1059.22,948.485L1062.01,950.356L1063.46,949.942L1061.96,953.797L1063.17,955.053L1065.69,955.387C1065.69,955.387 1066.56,956.302 1064.88,958.157C1063.2,960.012 1063.46,964.621 1063.46,964.621L1063.88,967.185L1063.55,968.221L1065.33,969.216L1063.17,970.303L1065.06,971.745L1063.26,972.844C1063.26,972.844 1061.86,975.187 1062.82,975.238C1063.77,975.289 1064.47,975.227 1063.56,975.991C1062.64,976.755 1059.5,979.626 1059.5,979.626L1058.93,983.421C1058.93,983.421 975.453,1042 942.416,1074.47C942.416,1074.47 944.437,1104.69 945.862,1107.26C945.862,1107.26 982.663,1062.8 1033.39,1029.14L1035.12,1020.26L1038.49,1016.97L1042.14,1016.81L1051.91,1009.17L1062.89,1007.97L1061.19,1009.51L1065.59,1007.54L1068.67,1007.75L1069.46,1009.56L1073.69,1009.13L1072.6,1011.47L1077.03,1011.06L1076.26,1013.61L1080.86,1013.8L1080.93,1015.7L1084.01,1016.31C1084.01,1016.31 1091.07,1022.93 1092.54,1032.41L1091.91,1035.05L1095.42,1037.21L1093.62,1038.68L1094.97,1039.1L1092.81,1042.31L1095.23,1044.67L1093,1047.66L1094.97,1048.01L1092.3,1048.38L1092.96,1051.04L1094.13,1052.56L1094.42,1055.36L1089.31,1058.31L1087.89,1060.1L1090.43,1061.74C1090.43,1061.74 1013.76,1096.53 961.822,1191.56L960.466,1194.32L961.007,1190.06L953.676,1198.78L946.11,1198.24L940.669,1206.41L939.163,1200.75L942.436,1193.38L942.525,1191.58C942.525,1191.58 934.772,1200.4 933.581,1204.28C934.005,1200.5 935.625,1188.45 939.591,1182.21C939.591,1182.21 934.833,1185.09 929.584,1197.35L923.476,1195.81C923.476,1195.81 927.698,1180.59 930.393,1178C930.529,1177.88 930.602,1177.83 930.602,1177.83C930.533,1177.88 930.464,1177.93 930.393,1178ZM920.181,894.673C920.181,894.717 920.181,894.718 920.181,894.673Z"/>
        </g>
        <g transform="matrix(2.11697,0.927876,-0.927876,2.11697,-1610.72,-3528.47)">
            <path d="M2122.9,924.998C2122.9,924.998 2116.88,925.013 2121.27,899.165C2125.66,873.317 2155.8,861.648 2157.17,860.442C2158.54,859.236 2166.35,854.264 2166.35,854.264C2189.35,835.247 2212.87,844.009 2209.39,843.928C2205.91,843.846 2193.62,848.756 2193.62,848.756L2216.55,848.032C2216.78,851.324 2220.79,854.32 2220.79,854.32L2236.26,858.319C2322.42,874.7 2337.57,948.5 2358.95,996.835C2380.34,1045.17 2372.71,1089.1 2372.71,1089.1C2291.1,1204.42 2174.81,1155.12 2174.81,1155.12C2042.46,1100.89 2122.9,924.998 2122.9,924.998ZM2152.09,954.04L2148.8,969.371C2135.18,1025.84 2153.04,1060.78 2153.04,1060.78C2155.58,1083.5 2188.44,1128.41 2250.69,1118.84C2312.95,1109.26 2315.64,1095.29 2315.64,1095.29C2328.09,1075.59 2302.64,1005.74 2302.64,1005.74C2295.32,955.117 2257.26,931.248 2251.16,924.001C2245.07,916.755 2216.77,903.631 2198.87,907.618C2180.96,911.605 2182.17,916.06 2182.17,916.06L2182.94,922.639L2182.32,931.288L2178.48,932.299L2179.28,938.39L2171.81,935.964L2173.22,940.927L2172.53,943.842L2173.61,946.858L2168.71,946.963C2168.71,946.963 2165.34,944.516 2163.67,942.88C2161.99,941.245 2165.71,946.959 2164.22,946.913C2162.73,946.867 2162.08,946.327 2162.08,946.327L2163.28,949.751L2159.01,947.407L2159.3,950.538L2155.89,949.004L2156.34,953.66L2152.09,954.04Z"/>
        </g>
    </g>
</svg>
