<?xml version="1.0" encoding="UTF-8" standalone="no"?>
<!DOCTYPE svg PUBLIC "-//W3C//DTD SVG 1.1//EN" "http://www.w3.org/Graphics/SVG/1.1/DTD/svg11.dtd">
<svg width="100%" height="100%" viewBox="0 0 1594 1980" version="1.1" xmlns="http://www.w3.org/2000/svg" xmlns:xlink="http://www.w3.org/1999/xlink" xml:space="preserve" xmlns:serif="http://www.serif.com/" style="fill-rule:evenodd;clip-rule:evenodd;stroke-linejoin:round;stroke-miterlimit:2;">
    <g transform="matrix(1,0,0,1,-0.000712081,0.00436775)">
        <g transform="matrix(1.34183,0,0,1.29973,-48.39,-1118.19)">
            <g>
                <path id="mouth" d="M628.598,1351.15C629.15,1349.45 642.773,1348.69 642.773,1348.69C712.349,1341.35 775.459,1350 775.459,1350C802.367,1361.38 810.825,1370.34 810.825,1370.34L806.896,1374.89L818.162,1372.34L836.85,1391.73C835.589,1396.44 856.943,1422.58 860.303,1425.69C863.663,1428.81 904.278,1492.95 904.278,1492.95C904.278,1492.95 925.816,1519.09 924.005,1523.19C922.194,1527.29 949.159,1574.95 949.159,1574.95C984.728,1621.98 980.483,1630.22 980.483,1630.22C985.633,1686.39 988.04,1684.52 988.04,1684.52C1024.55,1742.05 1025.74,1753.23 1025.74,1753.23C1024.42,1789.03 1031.23,1799.13 1031.23,1799.13C1032.55,1809.2 1039.23,1856.35 1039.23,1856.35C1033.2,1904.45 1039.23,1927.48 1039.23,1927.48C1039.79,1958.77 1033.44,1960.28 1033.44,1960.28C1028.25,2011.18 1022.34,2033.07 1022.34,2033.07C1005.41,2072.83 1009.32,2086.89 1000.97,2096.21C992.632,2105.52 935.816,2172.74 935.816,2172.74C925.728,2184.03 863.942,2234.7 863.942,2234.7C848.798,2238.65 795.764,2284.99 795.764,2284.99C786.46,2294.23 721.718,2331.13 721.718,2331.13C697.774,2351.36 629.226,2374.9 629.226,2374.9C588.114,2389.38 563.766,2381.51 563.766,2381.51C566.596,2378.81 471.328,2362.79 465.044,2362.45C458.76,2362.1 455.817,2358.58 455.817,2358.58L456.719,2328.49L448.377,2326.22L446.917,2362.21L441.965,2361.29L441.127,2354.37C423.304,2358 401.404,2337.02 401.404,2337.02C369.935,2325.86 358.048,2311.68 358.048,2311.68C313.153,2268.98 308.061,2270.82 308.061,2270.82C279.311,2261.07 255.7,2218.52 255.7,2218.52C242.854,2183.79 215.445,2136.78 215.445,2136.78C176.388,2082.9 172.177,2025.13 172.177,2025.13C176.59,1996.58 168.884,1972.56 168.884,1972.56C156.41,1907.15 166.107,1775.65 166.107,1775.65C170.266,1727.53 184.212,1690.62 184.212,1690.62C176.468,1647.01 227.638,1585.59 227.638,1585.59C233.268,1560.13 306.515,1498.61 310.025,1493.2C313.535,1487.79 332.319,1467.11 332.319,1467.11C331.526,1462.99 349.942,1443.96 349.942,1443.96C355.901,1442.35 357.086,1438.95 357.086,1438.95C360.143,1432.53 379.938,1423.07 379.938,1423.07C381.537,1421.12 387.502,1421.3 388.771,1418.08C390.04,1414.86 406.511,1406.94 410.262,1402.82C414.013,1398.71 419.285,1400.96 419.285,1400.96L419.072,1396.61L445.841,1381.29L450.862,1381.81C494.189,1353.66 572.023,1337.67 572.023,1337.67C604.625,1332.79 618.255,1343.97 618.255,1343.97C624.992,1341.04 628.047,1352.85 628.598,1351.15ZM544.97,1365.01C544.97,1365.01 449.343,1378.79 397.945,1424.72C397.945,1424.72 398.297,1427.56 400.772,1428.13C403.247,1428.71 404.282,1427.85 404.236,1429.73C404.189,1431.62 409.03,1441.03 410.34,1440.8C411.65,1440.58 414.983,1437.21 417.458,1436.66C419.933,1436.12 419.272,1443.01 419.272,1443.01C419.272,1443.01 499.567,1381.73 548.025,1368.05L544.745,1367.11L544.97,1365.01ZM939.023,1719.28C939.023,1719.28 943.894,1761.87 951.089,1780.04C958.284,1798.21 969.893,1816.32 974.242,1822.63C974.242,1822.63 966.444,1795.88 969.094,1779.21C969.094,1779.21 970.062,1770.99 953.871,1743.88C937.68,1716.78 939.023,1719.28 939.023,1719.28ZM934.984,2071.66C934.369,2073.17 942.325,2076.12 952.932,2092.33C952.932,2092.33 973.479,2045.35 970.878,2027.65C968.278,2009.95 977.396,1991.14 980.363,1962.44C983.331,1933.74 976.585,1931.09 980.611,1892.03C980.611,1892.03 982.434,1861.61 975.931,1852.35C969.427,1843.09 968.18,1849.37 954.699,1820.93C954.699,1820.93 937.632,1794.58 936.136,1786.53C934.639,1778.48 932.831,1789.02 927.748,1757.08C922.664,1725.14 918.21,1731.04 918.005,1689.96C918.005,1689.96 915.975,1669.78 903.306,1654.01C903.306,1654.01 899.709,1656.84 896.155,1669.09C892.601,1681.34 865.24,1717.42 861.55,1722.52C857.86,1727.61 840.086,1754.38 837.915,1760.78C835.745,1767.17 829.343,1772.04 824.978,1781.49C820.613,1790.94 814.759,1787.45 808.42,1802.86C802.081,1818.27 801.59,1819.95 800.368,1826.72C799.146,1833.48 795.878,1851.46 795.84,1861.72C795.84,1861.72 795.946,1869.46 795.13,1871.48L794.159,1872.53C794.159,1872.53 795.018,1883.12 789.557,1890.62C789.557,1890.62 845.73,1919.33 845.241,1920.9C845.241,1920.9 864.128,1930.93 897.247,1981.83C897.247,1981.83 920.549,2025.3 923.376,2030.27C923.376,2030.27 933.916,2059.5 934.746,2061.63C934.746,2061.63 935.599,2070.16 934.984,2071.66ZM721.122,1453.94C721.122,1453.94 708.634,1488.93 704.366,1497.49C704.366,1497.49 693.597,1526.51 694.672,1540.7C694.672,1540.7 694.896,1593.16 690.117,1595.32C690.117,1595.32 681.388,1629.65 680.239,1625.22C680.239,1625.22 666.936,1658.26 666.708,1669.63C666.708,1669.63 674.992,1670.69 681.499,1668.49C681.499,1668.49 683.546,1674.03 689.406,1673.96C689.406,1673.96 694.12,1679.53 696.32,1678.57C696.32,1678.57 702.557,1678.14 702.584,1679.77C702.584,1679.77 715.047,1680.92 716.405,1679.75C716.405,1679.75 734.865,1690.05 747.864,1695.6C747.864,1695.6 731.771,1643.74 732.98,1608.86C732.98,1608.86 729.255,1571.21 728.298,1553.08C727.34,1534.94 726.326,1517.7 725.544,1509.62C724.762,1501.53 724.116,1487.43 723.993,1481.25C723.871,1475.07 721.122,1453.94 721.122,1453.94ZM385.463,1439.3C384.924,1438.5 328.116,1495.37 325.611,1501.46C323.105,1507.55 312.909,1507.35 304.107,1520.21C295.305,1533.06 267.735,1554.96 254.962,1574.12C242.189,1593.28 233.078,1600.59 230.088,1616.4C227.098,1632.22 227.598,1645.7 223.842,1659.86C220.086,1674.02 224.689,1704.13 221.342,1711.46C221.342,1711.46 256.965,1636.02 261.763,1632.49C261.763,1632.49 284.68,1585.89 290.244,1577.36C295.809,1568.82 311.813,1543.36 318.24,1536.71L318.894,1533.03C318.894,1533.03 346.802,1506.12 346.921,1503.45L348.282,1497.44C348.282,1497.44 383.678,1469.62 385.813,1464.87C385.813,1464.87 386.001,1440.11 385.463,1439.3ZM523.968,1682.2C527.132,1683.54 509.077,1658.15 509.077,1658.15C501.662,1651.65 482.236,1611.19 482.236,1611.19C483.76,1602.69 430.337,1520.46 430.337,1520.46C425.683,1517.87 410.305,1475.27 410.305,1475.27L403.923,1481.69C399.838,1490.99 385.777,1586.13 385.451,1608.6C385.124,1631.07 374.564,1692.04 374.564,1692.04C370.184,1703.55 375.363,1745.45 375.363,1745.45C373.831,1781.74 368.199,1799.43 368.199,1799.43C361.432,1829.56 362.262,1848.53 362.262,1848.53C357.614,1861.52 355.405,1897.04 351.173,1911.86C346.941,1926.69 342.984,1982.32 340.798,1990.14C338.613,1997.96 338.805,2012.81 338.283,2017.51C337.76,2022.21 335.352,2033.74 339.048,2041.48C342.744,2049.22 334.999,2053.94 334.999,2053.94C327.081,2054.97 323.9,2054.15 319.743,2050.09C315.586,2046.04 296.246,2016.74 296.246,2016.74L296.01,2011.47L292.613,2011.77C290.17,2006.32 274.994,1987.42 274.994,1987.42C262.38,1970.99 235.006,1953.14 235.006,1953.14C225.129,1948.72 203.938,1927.69 203.938,1927.69C204.52,1942.11 206.239,1940.56 206.239,1940.56L208.549,1942.43C206.059,1979.22 209.135,1992.71 209.135,1992.71C212.905,2023.95 225.148,2043.88 225.148,2043.88L224.708,2049.9C227.07,2048.84 250.622,2099.66 250.622,2099.66C254.627,2112.86 266.601,2129.05 266.601,2129.05C268.476,2127.02 283.824,2157.58 283.824,2157.58C284.099,2162.88 306.881,2193.78 306.881,2193.78C313.446,2213.75 329.752,2216.41 329.752,2216.41L328.917,2222.31C387.474,2272.97 395.897,2273.14 395.897,2273.14C410.083,2284.91 413.301,2281.13 413.301,2281.13C414.045,2279.24 434.124,2288.97 434.124,2288.97C434.9,2286.62 450.454,2253.45 458.121,2241.91C465.787,2230.38 471.364,2219.43 483.552,2201.14C495.74,2182.86 495.001,2175.87 495.001,2175.87C499.11,2151.39 517.548,2131.64 517.548,2131.64C517.57,2124.22 519.868,2124.98 519.868,2124.98C531.484,2119.79 541.133,2138.43 541.133,2138.43C599.234,2253.63 642.303,2288.51 642.303,2288.51L645.965,2288.54C645.667,2281.18 674.719,2241.92 674.719,2241.92C720.813,2179.73 726.314,2176.45 727.29,2166.01C728.267,2155.57 738.987,2125.02 741.475,2114.27C743.962,2103.52 743.317,2081.29 743.317,2081.29C741.507,2077.58 749.829,2077.65 749.829,2077.65C759.519,2080.79 760.387,2086.71 760.387,2086.71C763.809,2103.04 770.224,2108.15 770.224,2108.15C784.053,2126.66 793.695,2142.62 793.695,2142.62C808.052,2171.6 810.611,2168.32 810.157,2169.91C809.702,2171.49 829.166,2190.02 829.166,2190.02C837.968,2195.36 837.823,2190.81 837.823,2190.81C837.922,2174.66 882.567,2106.23 886.044,2098.59C889.522,2090.95 888.143,2091.14 888.143,2091.14C886.783,2081.48 889.688,2062.15 890.414,2060.81C891.14,2059.47 893.498,2056.8 893.498,2056.8C894.081,2043.89 894.087,2041.83 894.087,2041.83C894.087,2041.83 898.398,2038.25 902.086,2038.8C905.774,2039.36 908.796,2044.87 910.24,2046.49C911.685,2048.12 911.307,2045.31 911.307,2045.31C890.179,1994.15 872.326,1976.58 870.258,1971.06C868.19,1965.53 855.787,1954.83 846.733,1944.12C837.678,1933.42 810.175,1922.3 807.16,1920.75C804.144,1919.2 796.179,1915.22 796.179,1915.22C794.989,1912.18 786.94,1908.05 783.29,1908.38C779.64,1908.72 777.681,1912.24 775.053,1913.04C772.425,1913.84 771.367,1911.92 769.315,1911.02C767.263,1910.13 768.008,1905.2 768.008,1905.2C730.651,1904.76 703.997,1925.07 703.997,1925.07C680.855,1930.39 679.393,1935.01 679.393,1935.01C669.478,1938.31 660.791,1948.1 660.791,1948.1C655.362,1951.46 649.651,1956.98 649.651,1956.98C642.587,1968.23 616.818,1978.02 616.818,1978.02C578.84,1977.51 567.695,1957.88 567.695,1957.88C562.327,1956.03 560.989,1955.05 560.989,1955.05C549.238,1939.79 552.013,1937.18 545.649,1929.49C539.286,1921.79 534.934,1928.38 534.934,1928.38L533.83,1924.36C531.951,1920.1 510.998,1923.46 510.998,1923.46C506.866,1927.18 492.035,1933.63 492.035,1933.63C476.046,1937.56 460.441,1952.6 460.441,1952.6C457.939,1956.76 446.408,1968.57 446.408,1968.57L446.168,1973.12L443.602,1975.65C422.785,1992.6 419.211,2001.23 419.211,2001.23C412.193,2004.98 370.806,2083.73 370.806,2083.73C358.852,2104.27 356.227,2116.47 356.227,2116.47C354.447,2133.01 351.651,2137.65 351.651,2137.65C348.459,2139.6 344.618,2159.08 342.943,2159.72C341.268,2160.37 340.799,2167.32 340.799,2167.32C330.784,2173.92 325.209,2155.63 325.209,2155.63L329.837,2146.07C343.086,2114.49 335.773,2125.09 338.836,2110.35C341.9,2095.6 374.148,2043 395.88,2004.2C417.612,1965.4 429.229,1968.37 429.229,1968.37L429.551,1961.95C442.321,1950.65 438.807,1949.66 438.807,1949.66C438.809,1951.64 420.397,1951.17 420.397,1951.17C415.433,1950.33 407.591,1936.36 407.591,1936.36C391.533,1914.89 393.736,1881.3 393.736,1881.3C397.083,1870.81 403.051,1828.62 403.051,1828.62C401.77,1787.8 421.792,1756.62 421.792,1756.62C423.082,1747.73 416.493,1752.21 427.524,1742.78C438.555,1733.34 451.167,1723.92 463.237,1711.02C475.306,1698.11 481.656,1694.14 498.453,1688.91C515.25,1683.67 520.805,1680.86 523.968,1682.2ZM915.462,2073.34L909.227,2067.72C909.227,2067.72 907.305,2072.47 905.453,2077.29C903.6,2082.11 904.35,2098.66 902.642,2103.89C902.642,2103.89 879.612,2140.52 877.835,2145.94C876.059,2151.36 863.177,2167.78 863.247,2180.06C863.247,2180.06 927.969,2124.7 946.241,2112.01C946.241,2112.01 937.964,2092.06 925.872,2083.15C925.872,2083.15 922.31,2084.35 920.16,2083.98C918.01,2083.61 916.87,2081.47 915.959,2078.02C915.048,2074.58 915.462,2073.34 915.462,2073.34ZM525.971,2149.36C525.456,2145.36 520.707,2158.98 517.471,2164.27C514.234,2169.57 512.235,2184.63 511.634,2190.73C511.033,2196.83 503.811,2202.92 503.811,2202.92C503.811,2202.92 500.257,2210.5 492.658,2219.91C485.059,2229.32 481.525,2232.77 476.754,2240.63C471.983,2248.49 450.499,2283.36 449.14,2298.92C447.781,2314.48 448.364,2308.55 448.364,2308.55L456.679,2311.42L457.38,2306.42L461.21,2304.64C461.21,2304.64 502.504,2318.32 531.073,2321.53C559.642,2324.74 562.876,2328.9 566.34,2329.7C566.34,2329.7 632.642,2305.08 634.24,2301.44C634.24,2301.44 587.072,2258.47 558.574,2205.56C558.574,2205.56 526.487,2153.37 525.971,2149.36ZM873.64,1557.1C872.128,1552.3 865.791,1531.72 851.922,1517.15C851.922,1517.15 848.289,1506.73 831.082,1484.99C831.082,1484.99 816.095,1461.46 813.401,1460C810.707,1458.54 783.613,1417.02 767.099,1399.26C767.099,1399.26 737.022,1373.8 685.477,1378.6C685.477,1378.6 643.753,1380.55 623.25,1379.39C623.25,1379.39 580.012,1383.91 572.566,1385.91C565.12,1387.9 534.8,1395.99 529.788,1396.24C524.777,1396.48 517.213,1398.93 517.213,1398.93C517.213,1398.93 427.766,1452.11 424.494,1463.11C424.494,1463.11 437.381,1489.36 436.875,1495.67C436.875,1495.67 443.425,1516 448.854,1518.27C448.854,1518.27 489.661,1586.62 489.67,1590.53C489.67,1590.53 524.57,1658.85 529.699,1659.94C529.699,1659.94 536.024,1661.49 536.58,1663.74C536.58,1663.74 538.632,1670.46 537.382,1672.72C537.382,1672.72 561.692,1711.12 564.635,1730.69L567.912,1732.42C567.912,1732.42 576.32,1750.18 574.195,1751.51L578.495,1755.57C578.495,1755.57 600.666,1800.43 603.846,1803.03C603.846,1803.03 619.942,1762.19 620.749,1757.72C621.556,1753.24 626.016,1716.47 640.287,1688.69C640.287,1688.69 661.914,1619.02 666.214,1608.57C670.514,1598.11 670.677,1592.72 671.281,1582.17C671.885,1571.63 676.068,1543.52 674.446,1535.53C672.824,1527.53 682.652,1494.31 686.601,1489.93C686.601,1489.93 701.067,1451.04 701.728,1446.77C702.389,1442.5 702.722,1410.61 700.764,1405.09C698.806,1399.56 704.781,1398.42 704.781,1398.42C704.781,1398.42 712.534,1394.89 717.759,1402.27C722.983,1409.65 738.089,1432.94 738.189,1446.7C738.189,1446.7 741.382,1461.76 743.884,1477C746.386,1492.25 749.586,1558.49 749.586,1558.49C749.586,1558.49 751.827,1581.63 750.01,1588.12C750.01,1588.12 751.913,1608.06 753.581,1623.21C755.248,1638.37 760.106,1677.75 767.134,1695.07C774.161,1712.39 796.579,1771.51 796.422,1785.2C796.422,1785.2 815.597,1762.86 835.708,1725.66C835.708,1725.66 838.169,1719.61 866.159,1684.04C866.159,1684.04 886.696,1658.31 886.833,1635.78C886.833,1635.78 893.501,1633.61 896.349,1629.05C896.349,1629.05 905.82,1624.86 913.749,1640.11C921.678,1655.36 921.029,1647.2 928.205,1664.29C928.205,1664.29 931.226,1645.25 906.051,1610.59L895.863,1594.31L899.369,1592.75L889.402,1573.89C889.402,1573.89 885.059,1574.39 893.302,1588.12C893.302,1588.12 885.393,1576.39 877.149,1557.76L873.64,1557.1ZM666.526,2287.51L703.347,2274.32C705.797,2273.29 761.319,2253.17 761.319,2253.17C805.418,2231.01 832.326,2206.91 832.326,2206.91C817.668,2204.07 817.305,2200.35 817.305,2200.35C814.079,2197.97 789.245,2166.81 789.245,2166.81C779.804,2145.73 758.665,2117.86 758.665,2117.86C743.346,2181.94 739.736,2181.58 737.006,2187.01C734.276,2192.45 708.46,2223.85 708.46,2223.85C680.351,2254.22 666.526,2287.51 666.526,2287.51ZM369.955,1508.9C369.955,1508.9 369.804,1509.14 365.04,1513.66C365.04,1513.66 355.746,1517.89 354.69,1520.09C353.635,1522.29 320.906,1554.17 319.962,1558.8C319.019,1563.43 297.134,1586.68 280.143,1629.64C280.143,1629.64 258.937,1660.9 246.459,1692.4C233.981,1723.9 223.868,1742.38 221.742,1765.68C221.742,1765.68 221.99,1777.15 222.634,1780.75C223.278,1784.34 222.516,1783.72 220.53,1783.52C218.544,1783.32 213.507,1781.16 210.462,1778.54C210.462,1778.54 200.65,1802.38 205.912,1823.85C211.174,1845.32 205.442,1867.27 206.329,1900.94C206.329,1900.94 226.43,1926.59 233.686,1930.3C233.686,1930.3 261.492,1951.43 275.001,1962.39C288.51,1973.35 317.474,2012.71 317.474,2012.71C317.474,2012.71 317.598,1999.94 323.621,1980.12C323.621,1980.12 330.008,1913.29 331.768,1907.69C333.529,1902.08 339.67,1850.51 344.247,1832.78C344.247,1832.78 347.686,1796.14 351.634,1780.72C355.582,1765.3 353.015,1736.7 353.158,1720.87C353.3,1705.04 352.743,1689.28 359.146,1670.51C365.55,1651.74 359.046,1650.23 368.657,1594.69C378.268,1539.16 378.109,1531.29 378.109,1531.29L381.948,1499.63L369.955,1508.9ZM597.793,2335.9L601.839,2337.72C604.783,2339.44 626.28,2341.41 626.28,2341.41C658.236,2341.5 671.032,2333.9 697.509,2323.56C723.985,2313.23 753.341,2301.28 772.479,2285.3C791.616,2269.31 815.526,2253.88 818.479,2249.55C821.431,2245.23 851.937,2222.57 851.937,2222.57C887.782,2192.92 895.342,2176.56 895.342,2176.56C888.911,2178.56 870.443,2198.89 870.443,2198.89C864.162,2203.57 840.152,2224.44 840.152,2224.44C835.757,2226.74 811.468,2244.34 811.468,2244.34C804.926,2245.11 800.682,2251.11 800.682,2251.11C782.525,2260.96 756.105,2274.26 740.57,2277.68C725.036,2281.09 665.725,2306.93 651.343,2312.54C636.961,2318.14 597.793,2335.9 597.793,2335.9Z"/>
                <path id="brow1" d="M196.289,949.822C193.823,944.588 302.714,943.791 419.838,1114.67C419.838,1114.67 371.393,1132.21 368.392,1137.3C365.39,1142.39 337.548,1133.17 337.548,1133.17L336.712,1137.16C336.712,1137.16 321.655,1131.47 324.439,1137.63C324.439,1137.63 317.665,1141.69 297.932,1127.79C278.199,1113.88 150.913,1095.37 157.431,1023.23C157.431,1023.23 167.027,1016.14 168.434,1012.94C169.841,1009.74 151.652,992.019 154.395,983.369C157.139,974.719 198.755,955.055 196.289,949.822Z"/>
                <g id="pupil2c" transform="matrix(1,0,0,1,-57.3411,-69.1467)">
                    <g id="pupilbox2c" transform="matrix(0.745253,0,0,0.76939,-81.5861,870.945)">
                        <circle id="pupilbox2" cx="1590.9" cy="738.125" r="39.764" style="fill-opacity:0;"/>
                    </g>
                    <path id="pupil2" d="M1128.8,1506.65C1128.85,1506.54 1128.9,1506.43 1128.95,1506.33C1128.95,1506.33 1120.82,1508.78 1120.22,1509.63C1120.22,1509.63 1115.33,1508.91 1114.74,1509.61C1114.74,1509.61 1113.32,1512.08 1109.51,1510.7C1109.51,1510.7 1099.59,1514.73 1095.78,1508.88C1095.78,1508.88 1076.75,1512.51 1069.71,1503.83C1069.71,1503.83 1068.3,1496.63 1069.34,1484.42C1070.37,1472.2 1071.57,1475.39 1073.59,1456.56C1073.59,1456.56 1075.13,1449.21 1073.51,1438.3C1072.43,1431.08 1072.76,1429.08 1073.11,1428.55L1073.47,1428.39C1073.47,1428.39 1073.29,1428.28 1073.11,1428.55L1070,1429.9C1070,1429.9 1068.08,1410.17 1078.74,1409.53C1078.74,1409.53 1074.24,1375.61 1073.06,1372.66L1075.15,1372.38L1073.93,1369.89L1072.29,1369.24C1072.29,1369.24 1070.8,1359.8 1069.33,1359.02C1069.33,1359.02 1076.88,1347.99 1086.55,1344.32C1086.55,1344.32 1088.3,1350.19 1090.07,1364.55L1088.87,1365.25C1088.87,1365.25 1088.15,1371.49 1093.35,1371.58C1093.35,1371.58 1092.72,1368 1093.75,1367.07C1094.77,1366.14 1108.92,1354.21 1119.23,1363.61C1119.23,1363.61 1123.55,1370.1 1112.6,1369.8C1112.6,1369.8 1111.47,1372.14 1112.79,1372.74C1112.79,1372.74 1121.87,1371.28 1125.06,1372.69C1125.06,1372.69 1142.34,1409.26 1136.66,1465.89C1136.66,1465.89 1138.84,1471.63 1140.07,1476.8C1140.1,1476.89 1140.13,1476.97 1140.16,1477.03C1140.98,1479.18 1146.95,1495.29 1143.57,1499.19C1140.14,1503.15 1129.88,1506.32 1128.8,1506.65ZM1108.35,1373.77C1108.35,1373.77 1102.81,1375.71 1103.03,1376.68C1103.24,1377.65 1102.22,1380.48 1103.46,1380.96C1104.71,1381.44 1107.12,1384.19 1111.79,1380.4C1111.79,1380.4 1113.03,1378.89 1111.73,1377.77C1110.44,1376.64 1108.35,1373.77 1108.35,1373.77Z"/>
                </g>
                <path id="eye2" d="M890.508,1195.35L899.135,1191.75L909.692,1184.57C909.692,1184.57 912.047,1185.67 916.944,1185.3C916.944,1185.3 983.722,1152.99 1001.14,1155.38C1001.14,1155.38 1000.02,1149.96 1002.68,1149.76C1002.68,1149.76 1006.39,1148.53 1018.51,1149.61C1018.51,1149.61 1089.14,1170 1133.83,1245.34C1133.83,1245.34 1146.74,1251.14 1156.23,1263.16C1156.23,1263.16 1167.04,1264.79 1173.37,1277.42C1179.69,1290.05 1181.77,1291.52 1181.77,1291.52C1181.77,1291.52 1191.23,1296.71 1197.37,1309.58C1203.52,1322.45 1201.43,1330.89 1210.01,1338.85C1210.01,1338.85 1210.76,1366.49 1210.46,1368.17L1203.99,1369.29L1203.51,1370.98L1216.44,1371.05C1216.44,1371.05 1216.7,1383.65 1217.64,1386.84C1217.64,1386.84 1218.22,1389.3 1220.39,1389.94L1220.34,1396.13C1220.34,1396.13 1216.82,1397.87 1216.03,1399.51L1220.54,1398.35C1220.54,1398.35 1220.15,1411.66 1221.04,1414.16L1223.99,1414.56C1223.99,1414.56 1223.95,1439.93 1221.2,1449.45C1221.2,1449.45 1219.11,1449.4 1219,1449.94C1218.89,1450.49 1217.78,1450.86 1216.48,1459.38C1215.17,1467.91 1215.21,1457.22 1213.17,1469.38C1213.17,1469.38 1208.72,1482.71 1209.8,1488.8C1209.8,1488.8 1206.16,1494.09 1205.73,1496.26C1205.73,1496.26 1202.35,1495.04 1201.67,1493.78C1201.67,1493.78 1200.16,1494.99 1201.11,1501.57C1201.11,1501.57 1185.43,1526.01 1146.45,1539.18C1146.45,1539.18 1142.61,1542.36 1141.68,1541.39C1141.68,1541.39 1139.06,1551.42 1129.29,1555.44C1129.29,1555.44 1124.51,1556.55 1123.03,1555.86C1123.03,1555.86 1104.63,1567.03 1080.52,1564.82C1080.52,1564.82 1057.05,1560.32 1032.34,1551.71C1032.34,1551.71 1026.28,1552.62 1018.68,1547.89C1018.68,1547.89 1008.08,1548.94 997.737,1538.73C997.737,1538.73 992.985,1538.16 993.677,1540.31C993.677,1540.31 980.342,1532.4 978.948,1527.07L983.078,1526.57L982.76,1523.73L978.863,1524.8L977.472,1523.05L979.768,1522.33C979.768,1522.33 977.789,1519.4 971.175,1520.53C971.175,1520.53 969.442,1519.81 970.128,1517.33L966.799,1517.1L966.853,1513.82L964.762,1514.51C964.762,1514.51 941.922,1497.38 934.044,1477.19C934.044,1477.19 923.334,1449.73 919.021,1449.91C919.021,1449.91 916.153,1436.09 898.297,1413.46C898.297,1413.46 893.705,1408.48 885.57,1382.44C885.57,1382.44 886.527,1380.85 875.578,1372.36C875.578,1372.36 877.529,1368.05 866.244,1348.24C866.244,1348.24 862.619,1337.36 861.367,1318.91C861.367,1318.91 862.507,1314.74 856.22,1307.89C856.22,1307.89 854.158,1304.67 855.238,1291.06C856.318,1277.45 869.266,1265.31 870.166,1253.17C870.166,1253.17 889.428,1219.46 887.864,1216.82C887.864,1216.82 890.662,1213.64 890.752,1199.57L887.98,1198.54L890.508,1195.35ZM1140.07,1476.8C1141.31,1481.96 1166.81,1441.94 1166.1,1439.08C1166.1,1439.08 1170.94,1417.98 1165.32,1394.25C1165.32,1394.25 1152.53,1372.29 1150.1,1372.66L1152.24,1371.32C1152.24,1371.32 1130.93,1344.81 1129.37,1326.24C1129.37,1326.24 1132.04,1312.62 1101.07,1290.59C1101.07,1290.59 1106.84,1282.77 1116.26,1279.14C1116.26,1279.14 1109.26,1259.21 1083.38,1231.74C1057.5,1204.27 1028.04,1187.38 1003.27,1179.74L1002.8,1172.61C1002.8,1172.61 1000.14,1173.02 1000.09,1174.66C1000.04,1176.3 999.509,1176.88 999.819,1178.01C999.819,1178.01 988.834,1171.73 968.307,1182.95C947.78,1194.17 910.5,1204.96 910.224,1207.8C909.947,1210.64 908.003,1208.48 907.959,1211.01C907.959,1211.01 908.504,1215.6 899.768,1231.42C899.768,1231.42 889.579,1251.2 889.734,1255.17C889.734,1255.17 887.25,1256.23 887.672,1246.29C887.672,1246.29 885.381,1253.49 887.538,1257.89C887.538,1257.89 886.158,1263.92 885.124,1264.77L884.031,1255.47C884.031,1255.47 883.653,1274.37 885.38,1277.6C885.38,1277.6 884.541,1273.07 887.339,1267.22C887.339,1267.22 887.04,1272.97 888.629,1273.19C888.629,1273.19 889.978,1272.34 889.643,1270.43L892.85,1277.18C892.85,1277.18 893.376,1274.33 895.325,1273.56C895.325,1273.56 899.315,1284.27 901.65,1284.63C901.65,1284.63 902.787,1295.48 902.324,1298.92L903.775,1297.92C903.775,1297.92 906.584,1312.61 913.69,1324.63C913.69,1324.63 915.03,1324.72 915.314,1321.17C915.314,1321.17 916.109,1326.52 918.644,1326.02C918.644,1326.02 918.512,1324.87 919.426,1324.73C920.341,1324.58 920.085,1329.11 927.312,1331.78C927.312,1331.78 928.393,1353.95 936.385,1365.4C936.385,1365.4 936.894,1370.87 939.68,1372.34L942.9,1373C942.9,1373 944.54,1380.32 951.347,1385.02C951.347,1385.02 975.4,1422.51 982.72,1445.37C982.72,1445.37 996.209,1465.46 1009.69,1471.82C1009.69,1471.82 1020.74,1480.41 1033.44,1495.15C1033.44,1495.15 1053.94,1509.19 1102.49,1521.8C1102.49,1521.8 1110.01,1526.19 1127.53,1526.09C1127.53,1526.09 1126.9,1510.04 1128.95,1506.33C1128.95,1506.33 1128.83,1506.37 1128.6,1506.44L1129.02,1506C1129.02,1506 1130.84,1498.31 1131.9,1492.37C1132.96,1486.43 1140.07,1476.8 1140.07,1476.8ZM1203.49,1427.54C1202.54,1425.86 1201.74,1429.71 1186.33,1456.17C1170.92,1482.62 1181.01,1470.03 1180.73,1500.04C1180.73,1500.04 1187.33,1486.94 1191.91,1481.07C1191.91,1481.07 1188.28,1477.41 1190.03,1476.35C1191.77,1475.3 1198.29,1460.67 1203.91,1442.84C1203.91,1442.84 1204.44,1429.22 1203.49,1427.54Z"/>
                <g id="eyebox2cc">
                    <clipPath id="_clip1">
                        <path d="M890.508,1195.35L899.135,1191.75L909.692,1184.57C909.692,1184.57 912.047,1185.67 916.944,1185.3C916.944,1185.3 983.722,1152.99 1001.14,1155.38C1001.14,1155.38 1000.02,1149.96 1002.68,1149.76C1002.68,1149.76 1006.39,1148.53 1018.51,1149.61C1018.51,1149.61 1089.14,1170 1133.83,1245.34C1133.83,1245.34 1146.74,1251.14 1156.23,1263.16C1156.23,1263.16 1167.04,1264.79 1173.37,1277.42C1179.69,1290.05 1181.77,1291.52 1181.77,1291.52C1181.77,1291.52 1191.23,1296.71 1197.37,1309.58C1203.52,1322.45 1201.43,1330.89 1210.01,1338.85C1210.01,1338.85 1210.76,1366.49 1210.46,1368.17L1203.99,1369.29L1203.51,1370.98L1216.44,1371.05C1216.44,1371.05 1216.7,1383.65 1217.64,1386.84C1217.64,1386.84 1218.22,1389.3 1220.39,1389.94L1220.34,1396.13C1220.34,1396.13 1216.82,1397.87 1216.03,1399.51L1220.54,1398.35C1220.54,1398.35 1220.15,1411.66 1221.04,1414.16L1223.99,1414.56C1223.99,1414.56 1223.95,1439.93 1221.2,1449.45C1221.2,1449.45 1219.11,1449.4 1219,1449.94C1218.89,1450.49 1217.78,1450.86 1216.48,1459.38C1215.17,1467.91 1215.21,1457.22 1213.17,1469.38C1213.17,1469.38 1208.72,1482.71 1209.8,1488.8C1209.8,1488.8 1206.16,1494.09 1205.73,1496.26C1205.73,1496.26 1202.35,1495.04 1201.67,1493.78C1201.67,1493.78 1200.16,1494.99 1201.11,1501.57C1201.11,1501.57 1185.43,1526.01 1146.45,1539.18C1146.45,1539.18 1142.61,1542.36 1141.68,1541.39C1141.68,1541.39 1139.06,1551.42 1129.29,1555.44C1129.29,1555.44 1124.51,1556.55 1123.03,1555.86C1123.03,1555.86 1104.63,1567.03 1080.52,1564.82C1080.52,1564.82 1057.05,1560.32 1032.34,1551.71C1032.34,1551.71 1026.28,1552.62 1018.68,1547.89C1018.68,1547.89 1008.08,1548.94 997.737,1538.73C997.737,1538.73 992.985,1538.16 993.677,1540.31C993.677,1540.31 980.342,1532.4 978.948,1527.07L983.078,1526.57L982.76,1523.73L978.863,1524.8L977.472,1523.05L979.768,1522.33C979.768,1522.33 977.789,1519.4 971.175,1520.53C971.175,1520.53 969.442,1519.81 970.128,1517.33L966.799,1517.1L966.853,1513.82L964.762,1514.51C964.762,1514.51 941.922,1497.38 934.044,1477.19C934.044,1477.19 923.334,1449.73 919.021,1449.91C919.021,1449.91 916.153,1436.09 898.297,1413.46C898.297,1413.46 893.705,1408.48 885.57,1382.44C885.57,1382.44 886.527,1380.85 875.578,1372.36C875.578,1372.36 877.529,1368.05 866.244,1348.24C866.244,1348.24 862.619,1337.36 861.367,1318.91C861.367,1318.91 862.507,1314.74 856.22,1307.89C856.22,1307.89 854.158,1304.67 855.238,1291.06C856.318,1277.45 869.266,1265.31 870.166,1253.17C870.166,1253.17 889.428,1219.46 887.864,1216.82C887.864,1216.82 890.662,1213.64 890.752,1199.57L887.98,1198.54L890.508,1195.35ZM1140.07,1476.8C1141.31,1481.96 1166.81,1441.94 1166.1,1439.08C1166.1,1439.08 1170.94,1417.98 1165.32,1394.25C1165.32,1394.25 1152.53,1372.29 1150.1,1372.66L1152.24,1371.32C1152.24,1371.32 1130.93,1344.81 1129.37,1326.24C1129.37,1326.24 1132.04,1312.62 1101.07,1290.59C1101.07,1290.59 1106.84,1282.77 1116.26,1279.14C1116.26,1279.14 1109.26,1259.21 1083.38,1231.74C1057.5,1204.27 1028.04,1187.38 1003.27,1179.74L1002.8,1172.61C1002.8,1172.61 1000.14,1173.02 1000.09,1174.66C1000.04,1176.3 999.509,1176.88 999.819,1178.01C999.819,1178.01 988.834,1171.73 968.307,1182.95C947.78,1194.17 910.5,1204.96 910.224,1207.8C909.947,1210.64 908.003,1208.48 907.959,1211.01C907.959,1211.01 908.504,1215.6 899.768,1231.42C899.768,1231.42 889.579,1251.2 889.734,1255.17C889.734,1255.17 887.25,1256.23 887.672,1246.29C887.672,1246.29 885.381,1253.49 887.538,1257.89C887.538,1257.89 886.158,1263.92 885.124,1264.77L884.031,1255.47C884.031,1255.47 883.653,1274.37 885.38,1277.6C885.38,1277.6 884.541,1273.07 887.339,1267.22C887.339,1267.22 887.04,1272.97 888.629,1273.19C888.629,1273.19 889.978,1272.34 889.643,1270.43L892.85,1277.18C892.85,1277.18 893.376,1274.33 895.325,1273.56C895.325,1273.56 899.315,1284.27 901.65,1284.63C901.65,1284.63 902.787,1295.48 902.324,1298.92L903.775,1297.92C903.775,1297.92 906.584,1312.61 913.69,1324.63C913.69,1324.63 915.03,1324.72 915.314,1321.17C915.314,1321.17 916.109,1326.52 918.644,1326.02C918.644,1326.02 918.512,1324.87 919.426,1324.73C920.341,1324.58 920.085,1329.11 927.312,1331.78C927.312,1331.78 928.393,1353.95 936.385,1365.4C936.385,1365.4 936.894,1370.87 939.68,1372.34L942.9,1373C942.9,1373 944.54,1380.32 951.347,1385.02C951.347,1385.02 975.4,1422.51 982.72,1445.37C982.72,1445.37 996.209,1465.46 1009.69,1471.82C1009.69,1471.82 1020.74,1480.41 1033.44,1495.15C1033.44,1495.15 1053.94,1509.19 1102.49,1521.8C1102.49,1521.8 1110.01,1526.19 1127.53,1526.09C1127.53,1526.09 1126.9,1510.04 1128.95,1506.33C1128.95,1506.33 1128.83,1506.37 1128.6,1506.44L1129.02,1506C1129.02,1506 1130.84,1498.31 1131.9,1492.37C1132.96,1486.43 1140.07,1476.8 1140.07,1476.8ZM1203.49,1427.54C1202.54,1425.86 1201.74,1429.71 1186.33,1456.17C1170.92,1482.62 1181.01,1470.03 1180.73,1500.04C1180.73,1500.04 1187.33,1486.94 1191.91,1481.07C1191.91,1481.07 1188.28,1477.41 1190.03,1476.35C1191.77,1475.3 1198.29,1460.67 1203.91,1442.84C1203.91,1442.84 1204.44,1429.22 1203.49,1427.54Z"/>
                    </clipPath>
                    <g clip-path="url(#_clip1)">
                        <g id="eyebox2c" transform="matrix(2.52909,-2.27661,3.29464,3.90095,-5416.88,2101.51)">
                            <circle id="eyebox2" cx="1590.9" cy="738.125" r="39.764" style="fill-opacity:0;"/>
                        </g>
                    </g>
                </g>
                <g id="eyebox1cc">
                    <clipPath id="_clip2">
                        <path d="M190.546,1155.78C190.317,1153.3 270.777,1180.86 282.666,1196.01L294.23,1181.81C294.23,1181.81 317.041,1186.4 317.762,1208.18C317.762,1208.18 334.42,1221.55 339.425,1260.72C344.43,1299.89 335.34,1316.47 335.34,1316.47L331.048,1314.09C331.048,1314.09 305.135,1397.19 287.288,1432.52C269.44,1467.84 277.952,1460.15 267.268,1491.82C267.268,1491.82 252.646,1522.8 217.317,1553.72C217.317,1553.72 135.638,1677.74 93.762,1585.61C93.762,1585.61 89.102,1583.72 81.969,1578.66C74.836,1573.61 71.378,1582.92 56.558,1552.64C41.739,1522.36 36.223,1492.27 43.578,1469.95C50.932,1447.63 31.7,1341.25 37.001,1339.95C37.001,1339.95 55.276,1328.76 56.99,1325.24C58.704,1321.71 56.205,1289.08 58.863,1284.1C61.521,1279.13 138.404,1200.74 142.721,1201.13L147.123,1205.48L146.85,1197.34C146.85,1197.34 190.775,1158.26 190.546,1155.78ZM161.747,1208.27C161.747,1208.27 80.07,1285.83 77.774,1286.84C75.478,1287.84 79.063,1326.65 77.819,1325.67C76.575,1324.69 74.536,1332.4 74.536,1332.4C74.536,1332.4 74.293,1331.33 72.235,1331.48C70.177,1331.63 70.247,1340.15 70.247,1340.15C70.247,1340.15 67.408,1339.43 65.748,1339.99C64.087,1340.55 64.42,1347.23 64.42,1347.23L58.621,1348.22C51.444,1354.23 59.603,1468.37 59.603,1468.37L63.745,1467.59C63.745,1467.59 76.355,1488.99 78.212,1489.5C80.069,1490 81.364,1489.5 81.364,1489.5C89.875,1503.95 96.677,1507.91 96.677,1507.91L96.821,1504.8L98.456,1504.27L103.234,1513.74L104.795,1514.12L105.035,1512.63L100.027,1505.1L99.427,1499.61L107.042,1510.03L108.683,1510.43L109.58,1508.67L106.809,1498.97L113.468,1508.89L126.073,1535.17C132.453,1536.3 182.346,1551.95 188.016,1552.24C193.687,1552.53 203.265,1543.86 203.265,1543.86C198.867,1534.69 261.445,1414.22 266.947,1402.75C272.448,1391.28 277.902,1360.02 277.902,1360.02C283.315,1309.94 280.138,1283.96 280.138,1283.96C262.622,1290.21 261.955,1281.48 261.955,1281.48L269.691,1273.59C276.134,1243.1 161.747,1208.27 161.747,1208.27Z"/>
                    </clipPath>
                    <g clip-path="url(#_clip2)">
                        <g id="eyebox1c" transform="matrix(2.68265,1.38737,-2.24535,4.62743,-2430.82,-4245.6)">
                            <circle id="eyebox1" cx="1590.9" cy="738.125" r="39.764" style="fill-opacity:0;"/>
                        </g>
                    </g>
                </g>
                <path id="eye1" d="M190.546,1155.78C190.317,1153.3 270.777,1180.86 282.666,1196.01L294.23,1181.81C294.23,1181.81 317.041,1186.4 317.762,1208.18C317.762,1208.18 334.42,1221.55 339.425,1260.72C344.43,1299.89 335.34,1316.47 335.34,1316.47L331.048,1314.09C331.048,1314.09 305.135,1397.19 287.288,1432.52C269.44,1467.84 277.952,1460.15 267.268,1491.82C267.268,1491.82 252.646,1522.8 217.317,1553.72C217.317,1553.72 135.638,1677.74 93.762,1585.61C93.762,1585.61 89.102,1583.72 81.969,1578.66C74.836,1573.61 71.378,1582.92 56.558,1552.64C41.739,1522.36 36.223,1492.27 43.578,1469.95C50.932,1447.63 31.7,1341.25 37.001,1339.95C37.001,1339.95 55.276,1328.76 56.99,1325.24C58.704,1321.71 56.205,1289.08 58.863,1284.1C61.521,1279.13 138.404,1200.74 142.721,1201.13L147.123,1205.48L146.85,1197.34C146.85,1197.34 190.775,1158.26 190.546,1155.78ZM161.747,1208.27C161.747,1208.27 80.07,1285.83 77.774,1286.84C75.478,1287.84 79.063,1326.65 77.819,1325.67C76.575,1324.69 74.536,1332.4 74.536,1332.4C74.536,1332.4 74.293,1331.33 72.235,1331.48C70.177,1331.63 70.247,1340.15 70.247,1340.15C70.247,1340.15 67.408,1339.43 65.748,1339.99C64.087,1340.55 64.42,1347.23 64.42,1347.23L58.621,1348.22C51.444,1354.23 59.603,1468.37 59.603,1468.37L63.745,1467.59C63.745,1467.59 76.355,1488.99 78.212,1489.5C80.069,1490 81.364,1489.5 81.364,1489.5C89.875,1503.95 96.677,1507.91 96.677,1507.91L96.821,1504.8L98.456,1504.27L103.234,1513.74L104.795,1514.12L105.035,1512.63L100.027,1505.1L99.427,1499.61L107.042,1510.03L108.683,1510.43L109.58,1508.67L106.809,1498.97L113.468,1508.89L126.073,1535.17C132.453,1536.3 182.346,1551.95 188.016,1552.24C193.687,1552.53 203.265,1543.86 203.265,1543.86C198.867,1534.69 261.445,1414.22 266.947,1402.75C272.448,1391.28 277.902,1360.02 277.902,1360.02C283.315,1309.94 280.138,1283.96 280.138,1283.96C262.622,1290.21 261.955,1281.48 261.955,1281.48L269.691,1273.59C276.134,1243.1 161.747,1208.27 161.747,1208.27Z"/>
                <g id="pupil1c">
                    <g id="pupilbox1c" transform="matrix(0.745253,0,0,0.76939,-982.819,812.024)">
                        <circle id="pupilbox1" cx="1590.9" cy="738.125" r="39.764" style="fill-opacity:0;"/>
                    </g>
                    <path id="pupil1" d="M200.285,1469.64C199.524,1466.67 187.801,1455.62 187.801,1455.62C176.324,1429.4 185.677,1387.09 185.677,1387.09C187.795,1384.03 179.798,1378.72 180.231,1376.37C180.664,1374.01 185.266,1369.79 185.266,1369.79C182.528,1360.57 184.214,1361.61 184.214,1361.61C191.591,1366.95 194.655,1315.32 194.655,1315.32C220.035,1274.06 217.765,1309.73 219.753,1313.38C221.742,1317.04 221.604,1341.75 219.436,1359.31C217.268,1376.87 224.864,1393.37 224.864,1393.37L226.053,1399.02C227.159,1402.26 221.66,1407.22 221.66,1407.22C219.881,1412.2 222.517,1437.8 222.517,1437.8C214.777,1433.77 209.997,1425.5 209.997,1425.5C204.956,1441.09 210.988,1454.34 210.988,1454.34C207.639,1453.6 201.782,1447.45 201.782,1447.45C199.45,1448.23 200.152,1466.6 200.285,1469.64Z"/>
                </g>
                <path id="nostril1" d="M467.617,1304.85C468.083,1304.3 471.953,1297.96 473.325,1296.61C474.696,1295.25 476.27,1295.01 477.006,1293.94C477.742,1292.87 472.991,1294.02 480.698,1286.1C488.406,1278.17 506.485,1267.74 507.07,1266.54C507.654,1265.35 526.547,1257.86 526.547,1257.86L514.991,1257.57C514.991,1257.57 516.834,1256.39 516.247,1256.57C515.659,1256.74 523.673,1252.95 523.335,1252.61C522.996,1252.27 528.154,1251.8 527.2,1249.49C526.246,1247.18 529.052,1241.27 529.551,1240.6C530.05,1239.93 532.166,1237.56 533.343,1237.16C534.52,1236.76 535.675,1234.46 535.499,1234.46C535.324,1234.46 535.383,1229.51 535.796,1229.4C536.21,1229.29 537.545,1228.83 537.441,1228.93C537.337,1229.04 538.809,1227.56 537.008,1227.22C535.208,1226.88 526.386,1222.79 522.248,1224.53C518.109,1226.26 516.236,1220.2 514.64,1221.2C513.043,1222.2 516.419,1220.08 506.887,1227.97C497.355,1235.85 470.623,1263.03 465.207,1267.37C459.791,1271.7 437.727,1294.89 421.985,1311.42C406.243,1327.95 407.129,1327.67 404.009,1330.89C400.889,1334.12 392.602,1346.53 390.289,1348.55C387.975,1350.57 388.424,1350.36 385.909,1350.21C383.394,1350.07 383.988,1349.7 382.507,1350.08C381.026,1350.45 378.775,1349.52 378.004,1349.35C377.233,1349.18 377.784,1347.76 377.826,1346.91C377.867,1346.07 377.812,1344.08 376.935,1343.85C376.059,1343.63 374.871,1343.48 373.942,1344.18C373.013,1344.88 373.324,1345.53 373.11,1347.08C372.897,1348.63 372.063,1347.88 371.476,1348.88C370.89,1349.88 369.241,1352.58 369.359,1353.94C369.477,1355.31 367.644,1359.1 367.036,1359.65C366.427,1360.19 365.806,1364.54 366.767,1365.17C367.729,1365.8 367.746,1368.23 368.989,1370.2C370.232,1372.17 373.118,1374.57 374.293,1375.39C375.469,1376.21 381.125,1377.05 383.221,1376.9C385.318,1376.76 389.818,1378.03 392.692,1380.4C395.567,1382.76 398.105,1386.07 399.314,1387.3C400.524,1388.53 403.609,1388.47 405.766,1387.7C407.922,1386.94 407.113,1386.63 407.409,1384.76C407.706,1382.89 412.701,1381.15 413.055,1375.17C413.409,1369.19 426.224,1356.94 426.224,1356.94C432.896,1337.75 467.152,1305.41 467.617,1304.85Z"/>
                <path id="nostril2" d="M775.676,1287.24C779.945,1288.39 779.695,1297.32 779.572,1297.28C779.45,1297.24 779.159,1299.92 777.014,1300.49C774.869,1301.06 775.429,1299.76 775.429,1299.76C775.802,1299.09 776.604,1296.49 775.812,1295.59C775.02,1294.69 773.088,1296.49 773.088,1296.49C757.465,1307.43 760.503,1310.38 759.509,1311.81C758.515,1313.25 759.364,1317.48 758.842,1320.58C758.319,1323.68 755.379,1323.09 755.379,1323.09C755.949,1322.16 745.381,1316.71 745.381,1316.71C700.62,1302.77 682.152,1284.79 674.608,1280.78C667.065,1276.77 667.241,1273.88 667.241,1273.88L666.275,1276.47C656.393,1270.56 640.024,1255.13 636.715,1253.77C633.406,1252.42 633.905,1249.29 633.905,1249.29L636.728,1239.12C636.728,1239.12 633.853,1236.89 633.158,1235.68C632.463,1234.47 632.761,1230.04 633.113,1229.34C633.465,1228.63 635.792,1223.01 641.381,1223.59C646.97,1224.16 671.583,1230.64 671.583,1230.64C720.347,1276.02 771.407,1286.1 775.676,1287.24Z"/>
                <path id="brow2" d="M935.822,1034.71C935.822,1034.71 851.523,1129.23 823.132,1114.43C823.132,1114.43 818.034,1118.76 814.997,1115.34C811.96,1111.92 822.368,1107.45 821.926,1107.81C821.485,1108.17 823.592,1106.68 822.381,1106.09C821.17,1105.5 822.582,1104.18 819.952,1104.01C817.322,1103.84 789.523,1103.54 789.523,1103.54C789.523,1103.54 786.103,1105.47 777.625,1104.57L776.768,1102.49C776.768,1102.49 743.982,1093.51 742.91,1071.86C742.91,1071.86 752.784,1045.89 769.842,1025.64C769.842,1025.64 768.391,1030.76 771.142,1030.27L773.666,1027.85L776.422,1058.39L777.022,1009.01C777.022,1009.01 775.419,1007.31 796.741,982.458C796.741,982.458 798.893,982.597 798.31,972.921C797.726,963.244 819.706,960.838 854.659,912.59C854.659,912.59 859.014,904.801 857.649,901.252C857.649,901.252 881.74,882.893 884.572,881.864C887.404,880.835 929.833,869.855 927.085,864.169C927.085,864.169 935.67,859.736 938.01,860.9C940.351,862.064 952.248,871.565 985.507,866.21L993.314,866.006C993.314,866.006 994.157,861.154 997.262,860.325L998.096,863.955C998.096,863.955 1013.16,869.355 1014.5,888.532C1015.84,907.709 1013.57,901.176 1011.29,933.788C1011.29,933.788 1011.83,946.159 982.566,998.204C982.566,998.204 967.348,1021.78 944.329,1031.76L935.822,1034.71Z"/>
            </g>
        </g>
    </g>
</svg>
